SplineFontDB: 3.0
FontName: dotmatrixnumberoneMedium
FullName: dotmatrixnumberone Medium
FamilyName: dotmatrixnumberone
Weight: Medium
Copyright: Public domain font.  Share and enjoy.
UComments: "2014-9-1: Created." 
Version: 001.000
ItalicAngle: 0
UnderlinePosition: -131.072
UnderlineWidth: 131.072
Ascent: 896
Descent: 128
LayerCount: 2
Layer: 0 0 "Back"  1
Layer: 1 0 "Fore"  0
XUID: [1021 63 1444778028 15497901]
OS2Version: 0
OS2_WeightWidthSlopeOnly: 0
OS2_UseTypoMetrics: 1
CreationTime: 1409616509
ModificationTime: 1409616599
OS2TypoAscent: 0
OS2TypoAOffset: 1
OS2TypoDescent: 0
OS2TypoDOffset: 1
OS2TypoLinegap: 0
OS2WinAscent: 0
OS2WinAOffset: 1
OS2WinDescent: 0
OS2WinDOffset: 1
HheadAscent: 0
HheadAOffset: 1
HheadDescent: 0
HheadDOffset: 1
OS2Vendor: 'PfEd'
MarkAttachClasses: 1
DEI: 91125
Encoding: UnicodeBmp
UnicodeInterp: none
NameList: Adobe Glyph List
DisplaySize: 32
AntiAlias: 1
FitToEm: 1
WinInfo: 64 16 7
BeginPrivate: 0
EndPrivate
BeginChars: 256 43

StartChar: percent
Encoding: 37 37 0
Width: 672
VWidth: 0
Flags: HW
LayerCount: 2
Back
Fore
SplineSet
384 32 m 1
 384 64 l 1
 384 96 l 1
 384 128 l 1
 416 128 l 1
 448 128 l 1
 448 96 l 1
 448 64 l 1
 448 32 l 1
 416 32 l 1
 384 32 l 1
480 32 m 1
 480 64 l 1
 480 96 l 1
 480 128 l 1
 512 128 l 1
 544 128 l 1
 544 96 l 1
 544 64 l 1
 544 32 l 1
 512 32 l 1
 480 32 l 1
96 160 m 1
 96 192 l 1
 96 224 l 1
 96 256 l 1
 128 256 l 1
 160 256 l 1
 160 224 l 1
 160 192 l 1
 160 160 l 1
 128 160 l 1
 96 160 l 1
384 160 m 1
 384 192 l 1
 384 224 l 1
 384 256 l 1
 416 256 l 1
 448 256 l 1
 448 224 l 1
 448 192 l 1
 448 160 l 1
 416 160 l 1
 384 160 l 1
480 160 m 1
 480 192 l 1
 480 224 l 1
 480 256 l 1
 512 256 l 1
 544 256 l 1
 544 224 l 1
 544 192 l 1
 544 160 l 1
 512 160 l 1
 480 160 l 1
192 288 m 1
 192 320 l 1
 192 352 l 1
 192 384 l 1
 224 384 l 1
 256 384 l 1
 256 352 l 1
 256 320 l 1
 256 288 l 1
 224 288 l 1
 192 288 l 1
288 416 m 1
 288 448 l 1
 288 480 l 1
 288 512 l 1
 320 512 l 1
 352 512 l 1
 352 480 l 1
 352 448 l 1
 352 416 l 1
 320 416 l 1
 288 416 l 1
384 544 m 1
 384 576 l 1
 384 608 l 1
 384 640 l 1
 416 640 l 1
 448 640 l 1
 448 608 l 1
 448 576 l 1
 448 544 l 1
 416 544 l 1
 384 544 l 1
96 672 m 1
 96 704 l 1
 96 736 l 1
 96 768 l 1
 128 768 l 1
 160 768 l 1
 160 736 l 1
 160 704 l 1
 160 672 l 1
 128 672 l 1
 96 672 l 1
192 672 m 1
 192 704 l 1
 192 736 l 1
 192 768 l 1
 224 768 l 1
 256 768 l 1
 256 736 l 1
 256 704 l 1
 256 672 l 1
 224 672 l 1
 192 672 l 1
480 672 m 1
 480 704 l 1
 480 736 l 1
 480 768 l 1
 512 768 l 1
 544 768 l 1
 544 736 l 1
 544 704 l 1
 544 672 l 1
 512 672 l 1
 480 672 l 1
96 800 m 1
 96 832 l 1
 96 864 l 1
 96 896 l 1
 128 896 l 1
 160 896 l 1
 160 864 l 1
 160 832 l 1
 160 800 l 1
 128 800 l 1
 96 800 l 1
192 800 m 1
 192 832 l 1
 192 864 l 1
 192 896 l 1
 224 896 l 1
 256 896 l 1
 256 864 l 1
 256 832 l 1
 256 800 l 1
 224 800 l 1
 192 800 l 1
EndSplineSet
EndChar

StartChar: hyphen
Encoding: 45 45 1
Width: 672
VWidth: 0
Flags: HW
LayerCount: 2
Back
Fore
SplineSet
96 416 m 1
 96 448 l 1
 96 480 l 1
 96 512 l 1
 128 512 l 1
 160 512 l 1
 160 480 l 1
 160 448 l 1
 160 416 l 1
 128 416 l 1
 96 416 l 1
192 416 m 1
 192 448 l 1
 192 480 l 1
 192 512 l 1
 224 512 l 1
 256 512 l 1
 256 480 l 1
 256 448 l 1
 256 416 l 1
 224 416 l 1
 192 416 l 1
288 416 m 1
 288 448 l 1
 288 480 l 1
 288 512 l 1
 320 512 l 1
 352 512 l 1
 352 480 l 1
 352 448 l 1
 352 416 l 1
 320 416 l 1
 288 416 l 1
384 416 m 1
 384 448 l 1
 384 480 l 1
 384 512 l 1
 416 512 l 1
 448 512 l 1
 448 480 l 1
 448 448 l 1
 448 416 l 1
 416 416 l 1
 384 416 l 1
480 416 m 1
 480 448 l 1
 480 480 l 1
 480 512 l 1
 512 512 l 1
 544 512 l 1
 544 480 l 1
 544 448 l 1
 544 416 l 1
 512 416 l 1
 480 416 l 1
EndSplineSet
EndChar

StartChar: period
Encoding: 46 46 2
Width: 672
VWidth: 0
Flags: HW
LayerCount: 2
Back
Fore
SplineSet
288 32 m 1
 288 64 l 1
 288 96 l 1
 288 128 l 1
 320 128 l 1
 352 128 l 1
 352 96 l 1
 352 64 l 1
 352 32 l 1
 320 32 l 1
 288 32 l 1
EndSplineSet
EndChar

StartChar: slash
Encoding: 47 47 3
Width: 672
VWidth: 0
Flags: HW
LayerCount: 2
Back
Fore
SplineSet
96 160 m 1
 96 192 l 1
 96 224 l 1
 96 256 l 1
 128 256 l 1
 160 256 l 1
 160 224 l 1
 160 192 l 1
 160 160 l 1
 128 160 l 1
 96 160 l 1
192 288 m 1
 192 320 l 1
 192 352 l 1
 192 384 l 1
 224 384 l 1
 256 384 l 1
 256 352 l 1
 256 320 l 1
 256 288 l 1
 224 288 l 1
 192 288 l 1
288 416 m 1
 288 448 l 1
 288 480 l 1
 288 512 l 1
 320 512 l 1
 352 512 l 1
 352 480 l 1
 352 448 l 1
 352 416 l 1
 320 416 l 1
 288 416 l 1
384 544 m 1
 384 576 l 1
 384 608 l 1
 384 640 l 1
 416 640 l 1
 448 640 l 1
 448 608 l 1
 448 576 l 1
 448 544 l 1
 416 544 l 1
 384 544 l 1
480 672 m 1
 480 704 l 1
 480 736 l 1
 480 768 l 1
 512 768 l 1
 544 768 l 1
 544 736 l 1
 544 704 l 1
 544 672 l 1
 512 672 l 1
 480 672 l 1
EndSplineSet
EndChar

StartChar: zero
Encoding: 48 48 4
Width: 672
VWidth: 0
Flags: HW
LayerCount: 2
Back
Fore
SplineSet
192 32 m 1
 192 64 l 1
 192 96 l 1
 192 128 l 1
 224 128 l 1
 256 128 l 1
 256 96 l 1
 256 64 l 1
 256 32 l 1
 224 32 l 1
 192 32 l 1
288 32 m 1
 288 64 l 1
 288 96 l 1
 288 128 l 1
 320 128 l 1
 352 128 l 1
 352 96 l 1
 352 64 l 1
 352 32 l 1
 320 32 l 1
 288 32 l 1
384 32 m 1
 384 64 l 1
 384 96 l 1
 384 128 l 1
 416 128 l 1
 448 128 l 1
 448 96 l 1
 448 64 l 1
 448 32 l 1
 416 32 l 1
 384 32 l 1
96 160 m 1
 96 192 l 1
 96 224 l 1
 96 256 l 1
 128 256 l 1
 160 256 l 1
 160 224 l 1
 160 192 l 1
 160 160 l 1
 128 160 l 1
 96 160 l 1
480 160 m 1
 480 192 l 1
 480 224 l 1
 480 256 l 1
 512 256 l 1
 544 256 l 1
 544 224 l 1
 544 192 l 1
 544 160 l 1
 512 160 l 1
 480 160 l 1
96 288 m 1
 96 320 l 1
 96 352 l 1
 96 384 l 1
 128 384 l 1
 160 384 l 1
 160 352 l 1
 160 320 l 1
 160 288 l 1
 128 288 l 1
 96 288 l 1
192 288 m 1
 192 320 l 1
 192 352 l 1
 192 384 l 1
 224 384 l 1
 256 384 l 1
 256 352 l 1
 256 320 l 1
 256 288 l 1
 224 288 l 1
 192 288 l 1
480 288 m 1
 480 320 l 1
 480 352 l 1
 480 384 l 1
 512 384 l 1
 544 384 l 1
 544 352 l 1
 544 320 l 1
 544 288 l 1
 512 288 l 1
 480 288 l 1
96 416 m 1
 96 448 l 1
 96 480 l 1
 96 512 l 1
 128 512 l 1
 160 512 l 1
 160 480 l 1
 160 448 l 1
 160 416 l 1
 128 416 l 1
 96 416 l 1
288 416 m 1
 288 448 l 1
 288 480 l 1
 288 512 l 1
 320 512 l 1
 352 512 l 1
 352 480 l 1
 352 448 l 1
 352 416 l 1
 320 416 l 1
 288 416 l 1
480 416 m 1
 480 448 l 1
 480 480 l 1
 480 512 l 1
 512 512 l 1
 544 512 l 1
 544 480 l 1
 544 448 l 1
 544 416 l 1
 512 416 l 1
 480 416 l 1
96 544 m 1
 96 576 l 1
 96 608 l 1
 96 640 l 1
 128 640 l 1
 160 640 l 1
 160 608 l 1
 160 576 l 1
 160 544 l 1
 128 544 l 1
 96 544 l 1
384 544 m 1
 384 576 l 1
 384 608 l 1
 384 640 l 1
 416 640 l 1
 448 640 l 1
 448 608 l 1
 448 576 l 1
 448 544 l 1
 416 544 l 1
 384 544 l 1
480 544 m 1
 480 576 l 1
 480 608 l 1
 480 640 l 1
 512 640 l 1
 544 640 l 1
 544 608 l 1
 544 576 l 1
 544 544 l 1
 512 544 l 1
 480 544 l 1
96 672 m 1
 96 704 l 1
 96 736 l 1
 96 768 l 1
 128 768 l 1
 160 768 l 1
 160 736 l 1
 160 704 l 1
 160 672 l 1
 128 672 l 1
 96 672 l 1
480 672 m 1
 480 704 l 1
 480 736 l 1
 480 768 l 1
 512 768 l 1
 544 768 l 1
 544 736 l 1
 544 704 l 1
 544 672 l 1
 512 672 l 1
 480 672 l 1
192 800 m 1
 192 832 l 1
 192 864 l 1
 192 896 l 1
 224 896 l 1
 256 896 l 1
 256 864 l 1
 256 832 l 1
 256 800 l 1
 224 800 l 1
 192 800 l 1
288 800 m 1
 288 832 l 1
 288 864 l 1
 288 896 l 1
 320 896 l 1
 352 896 l 1
 352 864 l 1
 352 832 l 1
 352 800 l 1
 320 800 l 1
 288 800 l 1
384 800 m 1
 384 832 l 1
 384 864 l 1
 384 896 l 1
 416 896 l 1
 448 896 l 1
 448 864 l 1
 448 832 l 1
 448 800 l 1
 416 800 l 1
 384 800 l 1
EndSplineSet
EndChar

StartChar: one
Encoding: 49 49 5
Width: 672
VWidth: 0
Flags: HW
LayerCount: 2
Back
Fore
SplineSet
192 32 m 1
 192 64 l 1
 192 96 l 1
 192 128 l 1
 224 128 l 1
 256 128 l 1
 256 96 l 1
 256 64 l 1
 256 32 l 1
 224 32 l 1
 192 32 l 1
288 32 m 1
 288 64 l 1
 288 96 l 1
 288 128 l 1
 320 128 l 1
 352 128 l 1
 352 96 l 1
 352 64 l 1
 352 32 l 1
 320 32 l 1
 288 32 l 1
384 32 m 1
 384 64 l 1
 384 96 l 1
 384 128 l 1
 416 128 l 1
 448 128 l 1
 448 96 l 1
 448 64 l 1
 448 32 l 1
 416 32 l 1
 384 32 l 1
288 160 m 1
 288 192 l 1
 288 224 l 1
 288 256 l 1
 320 256 l 1
 352 256 l 1
 352 224 l 1
 352 192 l 1
 352 160 l 1
 320 160 l 1
 288 160 l 1
288 288 m 1
 288 320 l 1
 288 352 l 1
 288 384 l 1
 320 384 l 1
 352 384 l 1
 352 352 l 1
 352 320 l 1
 352 288 l 1
 320 288 l 1
 288 288 l 1
288 416 m 1
 288 448 l 1
 288 480 l 1
 288 512 l 1
 320 512 l 1
 352 512 l 1
 352 480 l 1
 352 448 l 1
 352 416 l 1
 320 416 l 1
 288 416 l 1
288 544 m 1
 288 576 l 1
 288 608 l 1
 288 640 l 1
 320 640 l 1
 352 640 l 1
 352 608 l 1
 352 576 l 1
 352 544 l 1
 320 544 l 1
 288 544 l 1
192 672 m 1
 192 704 l 1
 192 736 l 1
 192 768 l 1
 224 768 l 1
 256 768 l 1
 256 736 l 1
 256 704 l 1
 256 672 l 1
 224 672 l 1
 192 672 l 1
288 672 m 1
 288 704 l 1
 288 736 l 1
 288 768 l 1
 320 768 l 1
 352 768 l 1
 352 736 l 1
 352 704 l 1
 352 672 l 1
 320 672 l 1
 288 672 l 1
288 800 m 1
 288 832 l 1
 288 864 l 1
 288 896 l 1
 320 896 l 1
 352 896 l 1
 352 864 l 1
 352 832 l 1
 352 800 l 1
 320 800 l 1
 288 800 l 1
EndSplineSet
EndChar

StartChar: two
Encoding: 50 50 6
Width: 672
VWidth: 0
Flags: HW
LayerCount: 2
Back
Fore
SplineSet
96 32 m 1
 96 64 l 1
 96 96 l 1
 96 128 l 1
 128 128 l 1
 160 128 l 1
 160 96 l 1
 160 64 l 1
 160 32 l 1
 128 32 l 1
 96 32 l 1
192 32 m 1
 192 64 l 1
 192 96 l 1
 192 128 l 1
 224 128 l 1
 256 128 l 1
 256 96 l 1
 256 64 l 1
 256 32 l 1
 224 32 l 1
 192 32 l 1
288 32 m 1
 288 64 l 1
 288 96 l 1
 288 128 l 1
 320 128 l 1
 352 128 l 1
 352 96 l 1
 352 64 l 1
 352 32 l 1
 320 32 l 1
 288 32 l 1
384 32 m 1
 384 64 l 1
 384 96 l 1
 384 128 l 1
 416 128 l 1
 448 128 l 1
 448 96 l 1
 448 64 l 1
 448 32 l 1
 416 32 l 1
 384 32 l 1
480 32 m 1
 480 64 l 1
 480 96 l 1
 480 128 l 1
 512 128 l 1
 544 128 l 1
 544 96 l 1
 544 64 l 1
 544 32 l 1
 512 32 l 1
 480 32 l 1
96 160 m 1
 96 192 l 1
 96 224 l 1
 96 256 l 1
 128 256 l 1
 160 256 l 1
 160 224 l 1
 160 192 l 1
 160 160 l 1
 128 160 l 1
 96 160 l 1
192 288 m 1
 192 320 l 1
 192 352 l 1
 192 384 l 1
 224 384 l 1
 256 384 l 1
 256 352 l 1
 256 320 l 1
 256 288 l 1
 224 288 l 1
 192 288 l 1
288 416 m 1
 288 448 l 1
 288 480 l 1
 288 512 l 1
 320 512 l 1
 352 512 l 1
 352 480 l 1
 352 448 l 1
 352 416 l 1
 320 416 l 1
 288 416 l 1
384 416 m 1
 384 448 l 1
 384 480 l 1
 384 512 l 1
 416 512 l 1
 448 512 l 1
 448 480 l 1
 448 448 l 1
 448 416 l 1
 416 416 l 1
 384 416 l 1
480 544 m 1
 480 576 l 1
 480 608 l 1
 480 640 l 1
 512 640 l 1
 544 640 l 1
 544 608 l 1
 544 576 l 1
 544 544 l 1
 512 544 l 1
 480 544 l 1
96 672 m 1
 96 704 l 1
 96 736 l 1
 96 768 l 1
 128 768 l 1
 160 768 l 1
 160 736 l 1
 160 704 l 1
 160 672 l 1
 128 672 l 1
 96 672 l 1
480 672 m 1
 480 704 l 1
 480 736 l 1
 480 768 l 1
 512 768 l 1
 544 768 l 1
 544 736 l 1
 544 704 l 1
 544 672 l 1
 512 672 l 1
 480 672 l 1
192 800 m 1
 192 832 l 1
 192 864 l 1
 192 896 l 1
 224 896 l 1
 256 896 l 1
 256 864 l 1
 256 832 l 1
 256 800 l 1
 224 800 l 1
 192 800 l 1
288 800 m 1
 288 832 l 1
 288 864 l 1
 288 896 l 1
 320 896 l 1
 352 896 l 1
 352 864 l 1
 352 832 l 1
 352 800 l 1
 320 800 l 1
 288 800 l 1
384 800 m 1
 384 832 l 1
 384 864 l 1
 384 896 l 1
 416 896 l 1
 448 896 l 1
 448 864 l 1
 448 832 l 1
 448 800 l 1
 416 800 l 1
 384 800 l 1
EndSplineSet
EndChar

StartChar: three
Encoding: 51 51 7
Width: 672
VWidth: 0
Flags: HW
LayerCount: 2
Back
Fore
SplineSet
192 32 m 1
 192 64 l 1
 192 96 l 1
 192 128 l 1
 224 128 l 1
 256 128 l 1
 256 96 l 1
 256 64 l 1
 256 32 l 1
 224 32 l 1
 192 32 l 1
288 32 m 1
 288 64 l 1
 288 96 l 1
 288 128 l 1
 320 128 l 1
 352 128 l 1
 352 96 l 1
 352 64 l 1
 352 32 l 1
 320 32 l 1
 288 32 l 1
384 32 m 1
 384 64 l 1
 384 96 l 1
 384 128 l 1
 416 128 l 1
 448 128 l 1
 448 96 l 1
 448 64 l 1
 448 32 l 1
 416 32 l 1
 384 32 l 1
96 160 m 1
 96 192 l 1
 96 224 l 1
 96 256 l 1
 128 256 l 1
 160 256 l 1
 160 224 l 1
 160 192 l 1
 160 160 l 1
 128 160 l 1
 96 160 l 1
480 160 m 1
 480 192 l 1
 480 224 l 1
 480 256 l 1
 512 256 l 1
 544 256 l 1
 544 224 l 1
 544 192 l 1
 544 160 l 1
 512 160 l 1
 480 160 l 1
480 288 m 1
 480 320 l 1
 480 352 l 1
 480 384 l 1
 512 384 l 1
 544 384 l 1
 544 352 l 1
 544 320 l 1
 544 288 l 1
 512 288 l 1
 480 288 l 1
288 416 m 1
 288 448 l 1
 288 480 l 1
 288 512 l 1
 320 512 l 1
 352 512 l 1
 352 480 l 1
 352 448 l 1
 352 416 l 1
 320 416 l 1
 288 416 l 1
384 416 m 1
 384 448 l 1
 384 480 l 1
 384 512 l 1
 416 512 l 1
 448 512 l 1
 448 480 l 1
 448 448 l 1
 448 416 l 1
 416 416 l 1
 384 416 l 1
384 544 m 1
 384 576 l 1
 384 608 l 1
 384 640 l 1
 416 640 l 1
 448 640 l 1
 448 608 l 1
 448 576 l 1
 448 544 l 1
 416 544 l 1
 384 544 l 1
480 672 m 1
 480 704 l 1
 480 736 l 1
 480 768 l 1
 512 768 l 1
 544 768 l 1
 544 736 l 1
 544 704 l 1
 544 672 l 1
 512 672 l 1
 480 672 l 1
96 800 m 1
 96 832 l 1
 96 864 l 1
 96 896 l 1
 128 896 l 1
 160 896 l 1
 160 864 l 1
 160 832 l 1
 160 800 l 1
 128 800 l 1
 96 800 l 1
192 800 m 1
 192 832 l 1
 192 864 l 1
 192 896 l 1
 224 896 l 1
 256 896 l 1
 256 864 l 1
 256 832 l 1
 256 800 l 1
 224 800 l 1
 192 800 l 1
288 800 m 1
 288 832 l 1
 288 864 l 1
 288 896 l 1
 320 896 l 1
 352 896 l 1
 352 864 l 1
 352 832 l 1
 352 800 l 1
 320 800 l 1
 288 800 l 1
384 800 m 1
 384 832 l 1
 384 864 l 1
 384 896 l 1
 416 896 l 1
 448 896 l 1
 448 864 l 1
 448 832 l 1
 448 800 l 1
 416 800 l 1
 384 800 l 1
480 800 m 1
 480 832 l 1
 480 864 l 1
 480 896 l 1
 512 896 l 1
 544 896 l 1
 544 864 l 1
 544 832 l 1
 544 800 l 1
 512 800 l 1
 480 800 l 1
EndSplineSet
EndChar

StartChar: four
Encoding: 52 52 8
Width: 672
VWidth: 0
Flags: HW
LayerCount: 2
Back
Fore
SplineSet
384 32 m 1
 384 64 l 1
 384 96 l 1
 384 128 l 1
 416 128 l 1
 448 128 l 1
 448 96 l 1
 448 64 l 1
 448 32 l 1
 416 32 l 1
 384 32 l 1
384 160 m 1
 384 192 l 1
 384 224 l 1
 384 256 l 1
 416 256 l 1
 448 256 l 1
 448 224 l 1
 448 192 l 1
 448 160 l 1
 416 160 l 1
 384 160 l 1
96 288 m 1
 96 320 l 1
 96 352 l 1
 96 384 l 1
 128 384 l 1
 160 384 l 1
 160 352 l 1
 160 320 l 1
 160 288 l 1
 128 288 l 1
 96 288 l 1
192 288 m 1
 192 320 l 1
 192 352 l 1
 192 384 l 1
 224 384 l 1
 256 384 l 1
 256 352 l 1
 256 320 l 1
 256 288 l 1
 224 288 l 1
 192 288 l 1
288 288 m 1
 288 320 l 1
 288 352 l 1
 288 384 l 1
 320 384 l 1
 352 384 l 1
 352 352 l 1
 352 320 l 1
 352 288 l 1
 320 288 l 1
 288 288 l 1
384 288 m 1
 384 320 l 1
 384 352 l 1
 384 384 l 1
 416 384 l 1
 448 384 l 1
 448 352 l 1
 448 320 l 1
 448 288 l 1
 416 288 l 1
 384 288 l 1
480 288 m 1
 480 320 l 1
 480 352 l 1
 480 384 l 1
 512 384 l 1
 544 384 l 1
 544 352 l 1
 544 320 l 1
 544 288 l 1
 512 288 l 1
 480 288 l 1
96 416 m 1
 96 448 l 1
 96 480 l 1
 96 512 l 1
 128 512 l 1
 160 512 l 1
 160 480 l 1
 160 448 l 1
 160 416 l 1
 128 416 l 1
 96 416 l 1
384 416 m 1
 384 448 l 1
 384 480 l 1
 384 512 l 1
 416 512 l 1
 448 512 l 1
 448 480 l 1
 448 448 l 1
 448 416 l 1
 416 416 l 1
 384 416 l 1
192 544 m 1
 192 576 l 1
 192 608 l 1
 192 640 l 1
 224 640 l 1
 256 640 l 1
 256 608 l 1
 256 576 l 1
 256 544 l 1
 224 544 l 1
 192 544 l 1
384 544 m 1
 384 576 l 1
 384 608 l 1
 384 640 l 1
 416 640 l 1
 448 640 l 1
 448 608 l 1
 448 576 l 1
 448 544 l 1
 416 544 l 1
 384 544 l 1
288 672 m 1
 288 704 l 1
 288 736 l 1
 288 768 l 1
 320 768 l 1
 352 768 l 1
 352 736 l 1
 352 704 l 1
 352 672 l 1
 320 672 l 1
 288 672 l 1
384 672 m 1
 384 704 l 1
 384 736 l 1
 384 768 l 1
 416 768 l 1
 448 768 l 1
 448 736 l 1
 448 704 l 1
 448 672 l 1
 416 672 l 1
 384 672 l 1
384 800 m 1
 384 832 l 1
 384 864 l 1
 384 896 l 1
 416 896 l 1
 448 896 l 1
 448 864 l 1
 448 832 l 1
 448 800 l 1
 416 800 l 1
 384 800 l 1
EndSplineSet
EndChar

StartChar: five
Encoding: 53 53 9
Width: 672
VWidth: 0
Flags: HW
LayerCount: 2
Back
Fore
SplineSet
192 32 m 1
 192 64 l 1
 192 96 l 1
 192 128 l 1
 224 128 l 1
 256 128 l 1
 256 96 l 1
 256 64 l 1
 256 32 l 1
 224 32 l 1
 192 32 l 1
288 32 m 1
 288 64 l 1
 288 96 l 1
 288 128 l 1
 320 128 l 1
 352 128 l 1
 352 96 l 1
 352 64 l 1
 352 32 l 1
 320 32 l 1
 288 32 l 1
384 32 m 1
 384 64 l 1
 384 96 l 1
 384 128 l 1
 416 128 l 1
 448 128 l 1
 448 96 l 1
 448 64 l 1
 448 32 l 1
 416 32 l 1
 384 32 l 1
96 160 m 1
 96 192 l 1
 96 224 l 1
 96 256 l 1
 128 256 l 1
 160 256 l 1
 160 224 l 1
 160 192 l 1
 160 160 l 1
 128 160 l 1
 96 160 l 1
480 160 m 1
 480 192 l 1
 480 224 l 1
 480 256 l 1
 512 256 l 1
 544 256 l 1
 544 224 l 1
 544 192 l 1
 544 160 l 1
 512 160 l 1
 480 160 l 1
480 288 m 1
 480 320 l 1
 480 352 l 1
 480 384 l 1
 512 384 l 1
 544 384 l 1
 544 352 l 1
 544 320 l 1
 544 288 l 1
 512 288 l 1
 480 288 l 1
480 416 m 1
 480 448 l 1
 480 480 l 1
 480 512 l 1
 512 512 l 1
 544 512 l 1
 544 480 l 1
 544 448 l 1
 544 416 l 1
 512 416 l 1
 480 416 l 1
96 544 m 1
 96 576 l 1
 96 608 l 1
 96 640 l 1
 128 640 l 1
 160 640 l 1
 160 608 l 1
 160 576 l 1
 160 544 l 1
 128 544 l 1
 96 544 l 1
192 544 m 1
 192 576 l 1
 192 608 l 1
 192 640 l 1
 224 640 l 1
 256 640 l 1
 256 608 l 1
 256 576 l 1
 256 544 l 1
 224 544 l 1
 192 544 l 1
288 544 m 1
 288 576 l 1
 288 608 l 1
 288 640 l 1
 320 640 l 1
 352 640 l 1
 352 608 l 1
 352 576 l 1
 352 544 l 1
 320 544 l 1
 288 544 l 1
384 544 m 1
 384 576 l 1
 384 608 l 1
 384 640 l 1
 416 640 l 1
 448 640 l 1
 448 608 l 1
 448 576 l 1
 448 544 l 1
 416 544 l 1
 384 544 l 1
96 672 m 1
 96 704 l 1
 96 736 l 1
 96 768 l 1
 128 768 l 1
 160 768 l 1
 160 736 l 1
 160 704 l 1
 160 672 l 1
 128 672 l 1
 96 672 l 1
96 800 m 1
 96 832 l 1
 96 864 l 1
 96 896 l 1
 128 896 l 1
 160 896 l 1
 160 864 l 1
 160 832 l 1
 160 800 l 1
 128 800 l 1
 96 800 l 1
192 800 m 1
 192 832 l 1
 192 864 l 1
 192 896 l 1
 224 896 l 1
 256 896 l 1
 256 864 l 1
 256 832 l 1
 256 800 l 1
 224 800 l 1
 192 800 l 1
288 800 m 1
 288 832 l 1
 288 864 l 1
 288 896 l 1
 320 896 l 1
 352 896 l 1
 352 864 l 1
 352 832 l 1
 352 800 l 1
 320 800 l 1
 288 800 l 1
384 800 m 1
 384 832 l 1
 384 864 l 1
 384 896 l 1
 416 896 l 1
 448 896 l 1
 448 864 l 1
 448 832 l 1
 448 800 l 1
 416 800 l 1
 384 800 l 1
480 800 m 1
 480 832 l 1
 480 864 l 1
 480 896 l 1
 512 896 l 1
 544 896 l 1
 544 864 l 1
 544 832 l 1
 544 800 l 1
 512 800 l 1
 480 800 l 1
EndSplineSet
EndChar

StartChar: six
Encoding: 54 54 10
Width: 672
VWidth: 0
Flags: HW
LayerCount: 2
Back
Fore
SplineSet
192 32 m 1
 192 64 l 1
 192 96 l 1
 192 128 l 1
 224 128 l 1
 256 128 l 1
 256 96 l 1
 256 64 l 1
 256 32 l 1
 224 32 l 1
 192 32 l 1
288 32 m 1
 288 64 l 1
 288 96 l 1
 288 128 l 1
 320 128 l 1
 352 128 l 1
 352 96 l 1
 352 64 l 1
 352 32 l 1
 320 32 l 1
 288 32 l 1
384 32 m 1
 384 64 l 1
 384 96 l 1
 384 128 l 1
 416 128 l 1
 448 128 l 1
 448 96 l 1
 448 64 l 1
 448 32 l 1
 416 32 l 1
 384 32 l 1
96 160 m 1
 96 192 l 1
 96 224 l 1
 96 256 l 1
 128 256 l 1
 160 256 l 1
 160 224 l 1
 160 192 l 1
 160 160 l 1
 128 160 l 1
 96 160 l 1
480 160 m 1
 480 192 l 1
 480 224 l 1
 480 256 l 1
 512 256 l 1
 544 256 l 1
 544 224 l 1
 544 192 l 1
 544 160 l 1
 512 160 l 1
 480 160 l 1
96 288 m 1
 96 320 l 1
 96 352 l 1
 96 384 l 1
 128 384 l 1
 160 384 l 1
 160 352 l 1
 160 320 l 1
 160 288 l 1
 128 288 l 1
 96 288 l 1
480 288 m 1
 480 320 l 1
 480 352 l 1
 480 384 l 1
 512 384 l 1
 544 384 l 1
 544 352 l 1
 544 320 l 1
 544 288 l 1
 512 288 l 1
 480 288 l 1
96 416 m 1
 96 448 l 1
 96 480 l 1
 96 512 l 1
 128 512 l 1
 160 512 l 1
 160 480 l 1
 160 448 l 1
 160 416 l 1
 128 416 l 1
 96 416 l 1
192 416 m 1
 192 448 l 1
 192 480 l 1
 192 512 l 1
 224 512 l 1
 256 512 l 1
 256 480 l 1
 256 448 l 1
 256 416 l 1
 224 416 l 1
 192 416 l 1
288 416 m 1
 288 448 l 1
 288 480 l 1
 288 512 l 1
 320 512 l 1
 352 512 l 1
 352 480 l 1
 352 448 l 1
 352 416 l 1
 320 416 l 1
 288 416 l 1
384 416 m 1
 384 448 l 1
 384 480 l 1
 384 512 l 1
 416 512 l 1
 448 512 l 1
 448 480 l 1
 448 448 l 1
 448 416 l 1
 416 416 l 1
 384 416 l 1
96 544 m 1
 96 576 l 1
 96 608 l 1
 96 640 l 1
 128 640 l 1
 160 640 l 1
 160 608 l 1
 160 576 l 1
 160 544 l 1
 128 544 l 1
 96 544 l 1
192 672 m 1
 192 704 l 1
 192 736 l 1
 192 768 l 1
 224 768 l 1
 256 768 l 1
 256 736 l 1
 256 704 l 1
 256 672 l 1
 224 672 l 1
 192 672 l 1
288 800 m 1
 288 832 l 1
 288 864 l 1
 288 896 l 1
 320 896 l 1
 352 896 l 1
 352 864 l 1
 352 832 l 1
 352 800 l 1
 320 800 l 1
 288 800 l 1
384 800 m 1
 384 832 l 1
 384 864 l 1
 384 896 l 1
 416 896 l 1
 448 896 l 1
 448 864 l 1
 448 832 l 1
 448 800 l 1
 416 800 l 1
 384 800 l 1
480 800 m 1
 480 832 l 1
 480 864 l 1
 480 896 l 1
 512 896 l 1
 544 896 l 1
 544 864 l 1
 544 832 l 1
 544 800 l 1
 512 800 l 1
 480 800 l 1
EndSplineSet
EndChar

StartChar: seven
Encoding: 55 55 11
Width: 672
VWidth: 0
Flags: HW
LayerCount: 2
Back
Fore
SplineSet
192 32 m 1
 192 64 l 1
 192 96 l 1
 192 128 l 1
 224 128 l 1
 256 128 l 1
 256 96 l 1
 256 64 l 1
 256 32 l 1
 224 32 l 1
 192 32 l 1
192 160 m 1
 192 192 l 1
 192 224 l 1
 192 256 l 1
 224 256 l 1
 256 256 l 1
 256 224 l 1
 256 192 l 1
 256 160 l 1
 224 160 l 1
 192 160 l 1
192 288 m 1
 192 320 l 1
 192 352 l 1
 192 384 l 1
 224 384 l 1
 256 384 l 1
 256 352 l 1
 256 320 l 1
 256 288 l 1
 224 288 l 1
 192 288 l 1
288 416 m 1
 288 448 l 1
 288 480 l 1
 288 512 l 1
 320 512 l 1
 352 512 l 1
 352 480 l 1
 352 448 l 1
 352 416 l 1
 320 416 l 1
 288 416 l 1
384 544 m 1
 384 576 l 1
 384 608 l 1
 384 640 l 1
 416 640 l 1
 448 640 l 1
 448 608 l 1
 448 576 l 1
 448 544 l 1
 416 544 l 1
 384 544 l 1
480 672 m 1
 480 704 l 1
 480 736 l 1
 480 768 l 1
 512 768 l 1
 544 768 l 1
 544 736 l 1
 544 704 l 1
 544 672 l 1
 512 672 l 1
 480 672 l 1
96 800 m 1
 96 832 l 1
 96 864 l 1
 96 896 l 1
 128 896 l 1
 160 896 l 1
 160 864 l 1
 160 832 l 1
 160 800 l 1
 128 800 l 1
 96 800 l 1
192 800 m 1
 192 832 l 1
 192 864 l 1
 192 896 l 1
 224 896 l 1
 256 896 l 1
 256 864 l 1
 256 832 l 1
 256 800 l 1
 224 800 l 1
 192 800 l 1
288 800 m 1
 288 832 l 1
 288 864 l 1
 288 896 l 1
 320 896 l 1
 352 896 l 1
 352 864 l 1
 352 832 l 1
 352 800 l 1
 320 800 l 1
 288 800 l 1
384 800 m 1
 384 832 l 1
 384 864 l 1
 384 896 l 1
 416 896 l 1
 448 896 l 1
 448 864 l 1
 448 832 l 1
 448 800 l 1
 416 800 l 1
 384 800 l 1
480 800 m 1
 480 832 l 1
 480 864 l 1
 480 896 l 1
 512 896 l 1
 544 896 l 1
 544 864 l 1
 544 832 l 1
 544 800 l 1
 512 800 l 1
 480 800 l 1
EndSplineSet
EndChar

StartChar: eight
Encoding: 56 56 12
Width: 672
VWidth: 0
Flags: HW
LayerCount: 2
Back
Fore
SplineSet
192 32 m 1
 192 64 l 1
 192 96 l 1
 192 128 l 1
 224 128 l 1
 256 128 l 1
 256 96 l 1
 256 64 l 1
 256 32 l 1
 224 32 l 1
 192 32 l 1
288 32 m 1
 288 64 l 1
 288 96 l 1
 288 128 l 1
 320 128 l 1
 352 128 l 1
 352 96 l 1
 352 64 l 1
 352 32 l 1
 320 32 l 1
 288 32 l 1
384 32 m 1
 384 64 l 1
 384 96 l 1
 384 128 l 1
 416 128 l 1
 448 128 l 1
 448 96 l 1
 448 64 l 1
 448 32 l 1
 416 32 l 1
 384 32 l 1
96 160 m 1
 96 192 l 1
 96 224 l 1
 96 256 l 1
 128 256 l 1
 160 256 l 1
 160 224 l 1
 160 192 l 1
 160 160 l 1
 128 160 l 1
 96 160 l 1
480 160 m 1
 480 192 l 1
 480 224 l 1
 480 256 l 1
 512 256 l 1
 544 256 l 1
 544 224 l 1
 544 192 l 1
 544 160 l 1
 512 160 l 1
 480 160 l 1
96 288 m 1
 96 320 l 1
 96 352 l 1
 96 384 l 1
 128 384 l 1
 160 384 l 1
 160 352 l 1
 160 320 l 1
 160 288 l 1
 128 288 l 1
 96 288 l 1
480 288 m 1
 480 320 l 1
 480 352 l 1
 480 384 l 1
 512 384 l 1
 544 384 l 1
 544 352 l 1
 544 320 l 1
 544 288 l 1
 512 288 l 1
 480 288 l 1
192 416 m 1
 192 448 l 1
 192 480 l 1
 192 512 l 1
 224 512 l 1
 256 512 l 1
 256 480 l 1
 256 448 l 1
 256 416 l 1
 224 416 l 1
 192 416 l 1
288 416 m 1
 288 448 l 1
 288 480 l 1
 288 512 l 1
 320 512 l 1
 352 512 l 1
 352 480 l 1
 352 448 l 1
 352 416 l 1
 320 416 l 1
 288 416 l 1
384 416 m 1
 384 448 l 1
 384 480 l 1
 384 512 l 1
 416 512 l 1
 448 512 l 1
 448 480 l 1
 448 448 l 1
 448 416 l 1
 416 416 l 1
 384 416 l 1
96 544 m 1
 96 576 l 1
 96 608 l 1
 96 640 l 1
 128 640 l 1
 160 640 l 1
 160 608 l 1
 160 576 l 1
 160 544 l 1
 128 544 l 1
 96 544 l 1
480 544 m 1
 480 576 l 1
 480 608 l 1
 480 640 l 1
 512 640 l 1
 544 640 l 1
 544 608 l 1
 544 576 l 1
 544 544 l 1
 512 544 l 1
 480 544 l 1
96 672 m 1
 96 704 l 1
 96 736 l 1
 96 768 l 1
 128 768 l 1
 160 768 l 1
 160 736 l 1
 160 704 l 1
 160 672 l 1
 128 672 l 1
 96 672 l 1
480 672 m 1
 480 704 l 1
 480 736 l 1
 480 768 l 1
 512 768 l 1
 544 768 l 1
 544 736 l 1
 544 704 l 1
 544 672 l 1
 512 672 l 1
 480 672 l 1
192 800 m 1
 192 832 l 1
 192 864 l 1
 192 896 l 1
 224 896 l 1
 256 896 l 1
 256 864 l 1
 256 832 l 1
 256 800 l 1
 224 800 l 1
 192 800 l 1
288 800 m 1
 288 832 l 1
 288 864 l 1
 288 896 l 1
 320 896 l 1
 352 896 l 1
 352 864 l 1
 352 832 l 1
 352 800 l 1
 320 800 l 1
 288 800 l 1
384 800 m 1
 384 832 l 1
 384 864 l 1
 384 896 l 1
 416 896 l 1
 448 896 l 1
 448 864 l 1
 448 832 l 1
 448 800 l 1
 416 800 l 1
 384 800 l 1
EndSplineSet
EndChar

StartChar: nine
Encoding: 57 57 13
Width: 672
VWidth: 0
Flags: HW
LayerCount: 2
Back
Fore
SplineSet
96 32 m 1
 96 64 l 1
 96 96 l 1
 96 128 l 1
 128 128 l 1
 160 128 l 1
 160 96 l 1
 160 64 l 1
 160 32 l 1
 128 32 l 1
 96 32 l 1
192 32 m 1
 192 64 l 1
 192 96 l 1
 192 128 l 1
 224 128 l 1
 256 128 l 1
 256 96 l 1
 256 64 l 1
 256 32 l 1
 224 32 l 1
 192 32 l 1
288 32 m 1
 288 64 l 1
 288 96 l 1
 288 128 l 1
 320 128 l 1
 352 128 l 1
 352 96 l 1
 352 64 l 1
 352 32 l 1
 320 32 l 1
 288 32 l 1
384 160 m 1
 384 192 l 1
 384 224 l 1
 384 256 l 1
 416 256 l 1
 448 256 l 1
 448 224 l 1
 448 192 l 1
 448 160 l 1
 416 160 l 1
 384 160 l 1
480 288 m 1
 480 320 l 1
 480 352 l 1
 480 384 l 1
 512 384 l 1
 544 384 l 1
 544 352 l 1
 544 320 l 1
 544 288 l 1
 512 288 l 1
 480 288 l 1
192 416 m 1
 192 448 l 1
 192 480 l 1
 192 512 l 1
 224 512 l 1
 256 512 l 1
 256 480 l 1
 256 448 l 1
 256 416 l 1
 224 416 l 1
 192 416 l 1
288 416 m 1
 288 448 l 1
 288 480 l 1
 288 512 l 1
 320 512 l 1
 352 512 l 1
 352 480 l 1
 352 448 l 1
 352 416 l 1
 320 416 l 1
 288 416 l 1
384 416 m 1
 384 448 l 1
 384 480 l 1
 384 512 l 1
 416 512 l 1
 448 512 l 1
 448 480 l 1
 448 448 l 1
 448 416 l 1
 416 416 l 1
 384 416 l 1
480 416 m 1
 480 448 l 1
 480 480 l 1
 480 512 l 1
 512 512 l 1
 544 512 l 1
 544 480 l 1
 544 448 l 1
 544 416 l 1
 512 416 l 1
 480 416 l 1
96 544 m 1
 96 576 l 1
 96 608 l 1
 96 640 l 1
 128 640 l 1
 160 640 l 1
 160 608 l 1
 160 576 l 1
 160 544 l 1
 128 544 l 1
 96 544 l 1
480 544 m 1
 480 576 l 1
 480 608 l 1
 480 640 l 1
 512 640 l 1
 544 640 l 1
 544 608 l 1
 544 576 l 1
 544 544 l 1
 512 544 l 1
 480 544 l 1
96 672 m 1
 96 704 l 1
 96 736 l 1
 96 768 l 1
 128 768 l 1
 160 768 l 1
 160 736 l 1
 160 704 l 1
 160 672 l 1
 128 672 l 1
 96 672 l 1
480 672 m 1
 480 704 l 1
 480 736 l 1
 480 768 l 1
 512 768 l 1
 544 768 l 1
 544 736 l 1
 544 704 l 1
 544 672 l 1
 512 672 l 1
 480 672 l 1
192 800 m 1
 192 832 l 1
 192 864 l 1
 192 896 l 1
 224 896 l 1
 256 896 l 1
 256 864 l 1
 256 832 l 1
 256 800 l 1
 224 800 l 1
 192 800 l 1
288 800 m 1
 288 832 l 1
 288 864 l 1
 288 896 l 1
 320 896 l 1
 352 896 l 1
 352 864 l 1
 352 832 l 1
 352 800 l 1
 320 800 l 1
 288 800 l 1
384 800 m 1
 384 832 l 1
 384 864 l 1
 384 896 l 1
 416 896 l 1
 448 896 l 1
 448 864 l 1
 448 832 l 1
 448 800 l 1
 416 800 l 1
 384 800 l 1
EndSplineSet
EndChar

StartChar: colon
Encoding: 58 58 14
Width: 288
VWidth: 0
Flags: HW
LayerCount: 2
Back
Fore
SplineSet
96 288 m 1
 96 320 l 1
 96 352 l 1
 96 384 l 1
 128 384 l 1
 160 384 l 1
 160 352 l 1
 160 320 l 1
 160 288 l 1
 128 288 l 1
 96 288 l 1
96 544 m 1
 96 576 l 1
 96 608 l 1
 96 640 l 1
 128 640 l 1
 160 640 l 1
 160 608 l 1
 160 576 l 1
 160 544 l 1
 128 544 l 1
 96 544 l 1
EndSplineSet
EndChar

StartChar: uni00ba
Encoding: 186 186 15
Width: 288
VWidth: 0
Flags: HW
LayerCount: 2
Back
Fore
SplineSet
96 288 m 1
 96 320 l 1
 96 352 l 1
 96 384 l 1
 128 384 l 1
 160 384 l 1
 160 352 l 1
 160 320 l 1
 160 288 l 1
 128 288 l 1
 96 288 l 1
96 544 m 1
 96 576 l 1
 96 608 l 1
 96 640 l 1
 128 640 l 1
 160 640 l 1
 160 608 l 1
 160 576 l 1
 160 544 l 1
 128 544 l 1
 96 544 l 1
EndSplineSet
EndChar

StartChar: A
Encoding: 65 65 17
Width: 672
VWidth: 0
Flags: HW
LayerCount: 2
Back
Fore
SplineSet
96 32 m 1
 96 64 l 1
 96 96 l 1
 96 128 l 1
 128 128 l 1
 160 128 l 1
 160 96 l 1
 160 64 l 1
 160 32 l 1
 128 32 l 1
 96 32 l 1
480 32 m 1
 480 64 l 1
 480 96 l 1
 480 128 l 1
 512 128 l 1
 544 128 l 1
 544 96 l 1
 544 64 l 1
 544 32 l 1
 512 32 l 1
 480 32 l 1
96 160 m 1
 96 192 l 1
 96 224 l 1
 96 256 l 1
 128 256 l 1
 160 256 l 1
 160 224 l 1
 160 192 l 1
 160 160 l 1
 128 160 l 1
 96 160 l 1
480 160 m 1
 480 192 l 1
 480 224 l 1
 480 256 l 1
 512 256 l 1
 544 256 l 1
 544 224 l 1
 544 192 l 1
 544 160 l 1
 512 160 l 1
 480 160 l 1
96 288 m 1
 96 320 l 1
 96 352 l 1
 96 384 l 1
 128 384 l 1
 160 384 l 1
 160 352 l 1
 160 320 l 1
 160 288 l 1
 128 288 l 1
 96 288 l 1
192 288 m 1
 192 320 l 1
 192 352 l 1
 192 384 l 1
 224 384 l 1
 256 384 l 1
 256 352 l 1
 256 320 l 1
 256 288 l 1
 224 288 l 1
 192 288 l 1
288 288 m 1
 288 320 l 1
 288 352 l 1
 288 384 l 1
 320 384 l 1
 352 384 l 1
 352 352 l 1
 352 320 l 1
 352 288 l 1
 320 288 l 1
 288 288 l 1
384 288 m 1
 384 320 l 1
 384 352 l 1
 384 384 l 1
 416 384 l 1
 448 384 l 1
 448 352 l 1
 448 320 l 1
 448 288 l 1
 416 288 l 1
 384 288 l 1
480 288 m 1
 480 320 l 1
 480 352 l 1
 480 384 l 1
 512 384 l 1
 544 384 l 1
 544 352 l 1
 544 320 l 1
 544 288 l 1
 512 288 l 1
 480 288 l 1
96 416 m 1
 96 448 l 1
 96 480 l 1
 96 512 l 1
 128 512 l 1
 160 512 l 1
 160 480 l 1
 160 448 l 1
 160 416 l 1
 128 416 l 1
 96 416 l 1
480 416 m 1
 480 448 l 1
 480 480 l 1
 480 512 l 1
 512 512 l 1
 544 512 l 1
 544 480 l 1
 544 448 l 1
 544 416 l 1
 512 416 l 1
 480 416 l 1
96 544 m 1
 96 576 l 1
 96 608 l 1
 96 640 l 1
 128 640 l 1
 160 640 l 1
 160 608 l 1
 160 576 l 1
 160 544 l 1
 128 544 l 1
 96 544 l 1
480 544 m 1
 480 576 l 1
 480 608 l 1
 480 640 l 1
 512 640 l 1
 544 640 l 1
 544 608 l 1
 544 576 l 1
 544 544 l 1
 512 544 l 1
 480 544 l 1
192 672 m 1
 192 704 l 1
 192 736 l 1
 192 768 l 1
 224 768 l 1
 256 768 l 1
 256 736 l 1
 256 704 l 1
 256 672 l 1
 224 672 l 1
 192 672 l 1
384 672 m 1
 384 704 l 1
 384 736 l 1
 384 768 l 1
 416 768 l 1
 448 768 l 1
 448 736 l 1
 448 704 l 1
 448 672 l 1
 416 672 l 1
 384 672 l 1
288 800 m 1
 288 832 l 1
 288 864 l 1
 288 896 l 1
 320 896 l 1
 352 896 l 1
 352 864 l 1
 352 832 l 1
 352 800 l 1
 320 800 l 1
 288 800 l 1
EndSplineSet
EndChar

StartChar: B
Encoding: 66 66 18
Width: 672
VWidth: 0
Flags: HW
LayerCount: 2
Back
Fore
SplineSet
96 32 m 1
 96 64 l 1
 96 96 l 1
 96 128 l 1
 128 128 l 1
 160 128 l 1
 160 96 l 1
 160 64 l 1
 160 32 l 1
 128 32 l 1
 96 32 l 1
192 32 m 1
 192 64 l 1
 192 96 l 1
 192 128 l 1
 224 128 l 1
 256 128 l 1
 256 96 l 1
 256 64 l 1
 256 32 l 1
 224 32 l 1
 192 32 l 1
288 32 m 1
 288 64 l 1
 288 96 l 1
 288 128 l 1
 320 128 l 1
 352 128 l 1
 352 96 l 1
 352 64 l 1
 352 32 l 1
 320 32 l 1
 288 32 l 1
384 32 m 1
 384 64 l 1
 384 96 l 1
 384 128 l 1
 416 128 l 1
 448 128 l 1
 448 96 l 1
 448 64 l 1
 448 32 l 1
 416 32 l 1
 384 32 l 1
96 160 m 1
 96 192 l 1
 96 224 l 1
 96 256 l 1
 128 256 l 1
 160 256 l 1
 160 224 l 1
 160 192 l 1
 160 160 l 1
 128 160 l 1
 96 160 l 1
480 160 m 1
 480 192 l 1
 480 224 l 1
 480 256 l 1
 512 256 l 1
 544 256 l 1
 544 224 l 1
 544 192 l 1
 544 160 l 1
 512 160 l 1
 480 160 l 1
96 288 m 1
 96 320 l 1
 96 352 l 1
 96 384 l 1
 128 384 l 1
 160 384 l 1
 160 352 l 1
 160 320 l 1
 160 288 l 1
 128 288 l 1
 96 288 l 1
480 288 m 1
 480 320 l 1
 480 352 l 1
 480 384 l 1
 512 384 l 1
 544 384 l 1
 544 352 l 1
 544 320 l 1
 544 288 l 1
 512 288 l 1
 480 288 l 1
96 416 m 1
 96 448 l 1
 96 480 l 1
 96 512 l 1
 128 512 l 1
 160 512 l 1
 160 480 l 1
 160 448 l 1
 160 416 l 1
 128 416 l 1
 96 416 l 1
192 416 m 1
 192 448 l 1
 192 480 l 1
 192 512 l 1
 224 512 l 1
 256 512 l 1
 256 480 l 1
 256 448 l 1
 256 416 l 1
 224 416 l 1
 192 416 l 1
288 416 m 1
 288 448 l 1
 288 480 l 1
 288 512 l 1
 320 512 l 1
 352 512 l 1
 352 480 l 1
 352 448 l 1
 352 416 l 1
 320 416 l 1
 288 416 l 1
384 416 m 1
 384 448 l 1
 384 480 l 1
 384 512 l 1
 416 512 l 1
 448 512 l 1
 448 480 l 1
 448 448 l 1
 448 416 l 1
 416 416 l 1
 384 416 l 1
96 544 m 1
 96 576 l 1
 96 608 l 1
 96 640 l 1
 128 640 l 1
 160 640 l 1
 160 608 l 1
 160 576 l 1
 160 544 l 1
 128 544 l 1
 96 544 l 1
480 544 m 1
 480 576 l 1
 480 608 l 1
 480 640 l 1
 512 640 l 1
 544 640 l 1
 544 608 l 1
 544 576 l 1
 544 544 l 1
 512 544 l 1
 480 544 l 1
96 672 m 1
 96 704 l 1
 96 736 l 1
 96 768 l 1
 128 768 l 1
 160 768 l 1
 160 736 l 1
 160 704 l 1
 160 672 l 1
 128 672 l 1
 96 672 l 1
480 672 m 1
 480 704 l 1
 480 736 l 1
 480 768 l 1
 512 768 l 1
 544 768 l 1
 544 736 l 1
 544 704 l 1
 544 672 l 1
 512 672 l 1
 480 672 l 1
96 800 m 1
 96 832 l 1
 96 864 l 1
 96 896 l 1
 128 896 l 1
 160 896 l 1
 160 864 l 1
 160 832 l 1
 160 800 l 1
 128 800 l 1
 96 800 l 1
192 800 m 1
 192 832 l 1
 192 864 l 1
 192 896 l 1
 224 896 l 1
 256 896 l 1
 256 864 l 1
 256 832 l 1
 256 800 l 1
 224 800 l 1
 192 800 l 1
288 800 m 1
 288 832 l 1
 288 864 l 1
 288 896 l 1
 320 896 l 1
 352 896 l 1
 352 864 l 1
 352 832 l 1
 352 800 l 1
 320 800 l 1
 288 800 l 1
384 800 m 1
 384 832 l 1
 384 864 l 1
 384 896 l 1
 416 896 l 1
 448 896 l 1
 448 864 l 1
 448 832 l 1
 448 800 l 1
 416 800 l 1
 384 800 l 1
EndSplineSet
EndChar

StartChar: C
Encoding: 67 67 19
Width: 672
VWidth: 0
Flags: HW
LayerCount: 2
Back
Fore
SplineSet
192 32 m 1
 192 64 l 1
 192 96 l 1
 192 128 l 1
 224 128 l 1
 256 128 l 1
 256 96 l 1
 256 64 l 1
 256 32 l 1
 224 32 l 1
 192 32 l 1
288 32 m 1
 288 64 l 1
 288 96 l 1
 288 128 l 1
 320 128 l 1
 352 128 l 1
 352 96 l 1
 352 64 l 1
 352 32 l 1
 320 32 l 1
 288 32 l 1
384 32 m 1
 384 64 l 1
 384 96 l 1
 384 128 l 1
 416 128 l 1
 448 128 l 1
 448 96 l 1
 448 64 l 1
 448 32 l 1
 416 32 l 1
 384 32 l 1
96 160 m 1
 96 192 l 1
 96 224 l 1
 96 256 l 1
 128 256 l 1
 160 256 l 1
 160 224 l 1
 160 192 l 1
 160 160 l 1
 128 160 l 1
 96 160 l 1
480 160 m 1
 480 192 l 1
 480 224 l 1
 480 256 l 1
 512 256 l 1
 544 256 l 1
 544 224 l 1
 544 192 l 1
 544 160 l 1
 512 160 l 1
 480 160 l 1
96 288 m 1
 96 320 l 1
 96 352 l 1
 96 384 l 1
 128 384 l 1
 160 384 l 1
 160 352 l 1
 160 320 l 1
 160 288 l 1
 128 288 l 1
 96 288 l 1
96 416 m 1
 96 448 l 1
 96 480 l 1
 96 512 l 1
 128 512 l 1
 160 512 l 1
 160 480 l 1
 160 448 l 1
 160 416 l 1
 128 416 l 1
 96 416 l 1
96 544 m 1
 96 576 l 1
 96 608 l 1
 96 640 l 1
 128 640 l 1
 160 640 l 1
 160 608 l 1
 160 576 l 1
 160 544 l 1
 128 544 l 1
 96 544 l 1
96 672 m 1
 96 704 l 1
 96 736 l 1
 96 768 l 1
 128 768 l 1
 160 768 l 1
 160 736 l 1
 160 704 l 1
 160 672 l 1
 128 672 l 1
 96 672 l 1
480 672 m 1
 480 704 l 1
 480 736 l 1
 480 768 l 1
 512 768 l 1
 544 768 l 1
 544 736 l 1
 544 704 l 1
 544 672 l 1
 512 672 l 1
 480 672 l 1
192 800 m 1
 192 832 l 1
 192 864 l 1
 192 896 l 1
 224 896 l 1
 256 896 l 1
 256 864 l 1
 256 832 l 1
 256 800 l 1
 224 800 l 1
 192 800 l 1
288 800 m 1
 288 832 l 1
 288 864 l 1
 288 896 l 1
 320 896 l 1
 352 896 l 1
 352 864 l 1
 352 832 l 1
 352 800 l 1
 320 800 l 1
 288 800 l 1
384 800 m 1
 384 832 l 1
 384 864 l 1
 384 896 l 1
 416 896 l 1
 448 896 l 1
 448 864 l 1
 448 832 l 1
 448 800 l 1
 416 800 l 1
 384 800 l 1
EndSplineSet
EndChar

StartChar: D
Encoding: 68 68 20
Width: 672
VWidth: 0
Flags: HW
LayerCount: 2
Back
Fore
SplineSet
96 32 m 1
 96 64 l 1
 96 96 l 1
 96 128 l 1
 128 128 l 1
 160 128 l 1
 160 96 l 1
 160 64 l 1
 160 32 l 1
 128 32 l 1
 96 32 l 1
192 32 m 1
 192 64 l 1
 192 96 l 1
 192 128 l 1
 224 128 l 1
 256 128 l 1
 256 96 l 1
 256 64 l 1
 256 32 l 1
 224 32 l 1
 192 32 l 1
288 32 m 1
 288 64 l 1
 288 96 l 1
 288 128 l 1
 320 128 l 1
 352 128 l 1
 352 96 l 1
 352 64 l 1
 352 32 l 1
 320 32 l 1
 288 32 l 1
384 32 m 1
 384 64 l 1
 384 96 l 1
 384 128 l 1
 416 128 l 1
 448 128 l 1
 448 96 l 1
 448 64 l 1
 448 32 l 1
 416 32 l 1
 384 32 l 1
96 160 m 1
 96 192 l 1
 96 224 l 1
 96 256 l 1
 128 256 l 1
 160 256 l 1
 160 224 l 1
 160 192 l 1
 160 160 l 1
 128 160 l 1
 96 160 l 1
480 160 m 1
 480 192 l 1
 480 224 l 1
 480 256 l 1
 512 256 l 1
 544 256 l 1
 544 224 l 1
 544 192 l 1
 544 160 l 1
 512 160 l 1
 480 160 l 1
96 288 m 1
 96 320 l 1
 96 352 l 1
 96 384 l 1
 128 384 l 1
 160 384 l 1
 160 352 l 1
 160 320 l 1
 160 288 l 1
 128 288 l 1
 96 288 l 1
480 288 m 1
 480 320 l 1
 480 352 l 1
 480 384 l 1
 512 384 l 1
 544 384 l 1
 544 352 l 1
 544 320 l 1
 544 288 l 1
 512 288 l 1
 480 288 l 1
96 416 m 1
 96 448 l 1
 96 480 l 1
 96 512 l 1
 128 512 l 1
 160 512 l 1
 160 480 l 1
 160 448 l 1
 160 416 l 1
 128 416 l 1
 96 416 l 1
480 416 m 1
 480 448 l 1
 480 480 l 1
 480 512 l 1
 512 512 l 1
 544 512 l 1
 544 480 l 1
 544 448 l 1
 544 416 l 1
 512 416 l 1
 480 416 l 1
96 544 m 1
 96 576 l 1
 96 608 l 1
 96 640 l 1
 128 640 l 1
 160 640 l 1
 160 608 l 1
 160 576 l 1
 160 544 l 1
 128 544 l 1
 96 544 l 1
480 544 m 1
 480 576 l 1
 480 608 l 1
 480 640 l 1
 512 640 l 1
 544 640 l 1
 544 608 l 1
 544 576 l 1
 544 544 l 1
 512 544 l 1
 480 544 l 1
96 672 m 1
 96 704 l 1
 96 736 l 1
 96 768 l 1
 128 768 l 1
 160 768 l 1
 160 736 l 1
 160 704 l 1
 160 672 l 1
 128 672 l 1
 96 672 l 1
480 672 m 1
 480 704 l 1
 480 736 l 1
 480 768 l 1
 512 768 l 1
 544 768 l 1
 544 736 l 1
 544 704 l 1
 544 672 l 1
 512 672 l 1
 480 672 l 1
96 800 m 1
 96 832 l 1
 96 864 l 1
 96 896 l 1
 128 896 l 1
 160 896 l 1
 160 864 l 1
 160 832 l 1
 160 800 l 1
 128 800 l 1
 96 800 l 1
192 800 m 1
 192 832 l 1
 192 864 l 1
 192 896 l 1
 224 896 l 1
 256 896 l 1
 256 864 l 1
 256 832 l 1
 256 800 l 1
 224 800 l 1
 192 800 l 1
288 800 m 1
 288 832 l 1
 288 864 l 1
 288 896 l 1
 320 896 l 1
 352 896 l 1
 352 864 l 1
 352 832 l 1
 352 800 l 1
 320 800 l 1
 288 800 l 1
384 800 m 1
 384 832 l 1
 384 864 l 1
 384 896 l 1
 416 896 l 1
 448 896 l 1
 448 864 l 1
 448 832 l 1
 448 800 l 1
 416 800 l 1
 384 800 l 1
EndSplineSet
EndChar

StartChar: E
Encoding: 69 69 21
Width: 672
VWidth: 0
Flags: HW
LayerCount: 2
Back
Fore
SplineSet
96 32 m 1
 96 64 l 1
 96 96 l 1
 96 128 l 1
 128 128 l 1
 160 128 l 1
 160 96 l 1
 160 64 l 1
 160 32 l 1
 128 32 l 1
 96 32 l 1
192 32 m 1
 192 64 l 1
 192 96 l 1
 192 128 l 1
 224 128 l 1
 256 128 l 1
 256 96 l 1
 256 64 l 1
 256 32 l 1
 224 32 l 1
 192 32 l 1
288 32 m 1
 288 64 l 1
 288 96 l 1
 288 128 l 1
 320 128 l 1
 352 128 l 1
 352 96 l 1
 352 64 l 1
 352 32 l 1
 320 32 l 1
 288 32 l 1
384 32 m 1
 384 64 l 1
 384 96 l 1
 384 128 l 1
 416 128 l 1
 448 128 l 1
 448 96 l 1
 448 64 l 1
 448 32 l 1
 416 32 l 1
 384 32 l 1
480 32 m 1
 480 64 l 1
 480 96 l 1
 480 128 l 1
 512 128 l 1
 544 128 l 1
 544 96 l 1
 544 64 l 1
 544 32 l 1
 512 32 l 1
 480 32 l 1
96 160 m 1
 96 192 l 1
 96 224 l 1
 96 256 l 1
 128 256 l 1
 160 256 l 1
 160 224 l 1
 160 192 l 1
 160 160 l 1
 128 160 l 1
 96 160 l 1
96 288 m 1
 96 320 l 1
 96 352 l 1
 96 384 l 1
 128 384 l 1
 160 384 l 1
 160 352 l 1
 160 320 l 1
 160 288 l 1
 128 288 l 1
 96 288 l 1
96 416 m 1
 96 448 l 1
 96 480 l 1
 96 512 l 1
 128 512 l 1
 160 512 l 1
 160 480 l 1
 160 448 l 1
 160 416 l 1
 128 416 l 1
 96 416 l 1
192 416 m 1
 192 448 l 1
 192 480 l 1
 192 512 l 1
 224 512 l 1
 256 512 l 1
 256 480 l 1
 256 448 l 1
 256 416 l 1
 224 416 l 1
 192 416 l 1
288 416 m 1
 288 448 l 1
 288 480 l 1
 288 512 l 1
 320 512 l 1
 352 512 l 1
 352 480 l 1
 352 448 l 1
 352 416 l 1
 320 416 l 1
 288 416 l 1
384 416 m 1
 384 448 l 1
 384 480 l 1
 384 512 l 1
 416 512 l 1
 448 512 l 1
 448 480 l 1
 448 448 l 1
 448 416 l 1
 416 416 l 1
 384 416 l 1
96 544 m 1
 96 576 l 1
 96 608 l 1
 96 640 l 1
 128 640 l 1
 160 640 l 1
 160 608 l 1
 160 576 l 1
 160 544 l 1
 128 544 l 1
 96 544 l 1
96 672 m 1
 96 704 l 1
 96 736 l 1
 96 768 l 1
 128 768 l 1
 160 768 l 1
 160 736 l 1
 160 704 l 1
 160 672 l 1
 128 672 l 1
 96 672 l 1
96 800 m 1
 96 832 l 1
 96 864 l 1
 96 896 l 1
 128 896 l 1
 160 896 l 1
 160 864 l 1
 160 832 l 1
 160 800 l 1
 128 800 l 1
 96 800 l 1
192 800 m 1
 192 832 l 1
 192 864 l 1
 192 896 l 1
 224 896 l 1
 256 896 l 1
 256 864 l 1
 256 832 l 1
 256 800 l 1
 224 800 l 1
 192 800 l 1
288 800 m 1
 288 832 l 1
 288 864 l 1
 288 896 l 1
 320 896 l 1
 352 896 l 1
 352 864 l 1
 352 832 l 1
 352 800 l 1
 320 800 l 1
 288 800 l 1
384 800 m 1
 384 832 l 1
 384 864 l 1
 384 896 l 1
 416 896 l 1
 448 896 l 1
 448 864 l 1
 448 832 l 1
 448 800 l 1
 416 800 l 1
 384 800 l 1
480 800 m 1
 480 832 l 1
 480 864 l 1
 480 896 l 1
 512 896 l 1
 544 896 l 1
 544 864 l 1
 544 832 l 1
 544 800 l 1
 512 800 l 1
 480 800 l 1
EndSplineSet
EndChar

StartChar: F
Encoding: 70 70 22
Width: 672
VWidth: 0
Flags: HW
LayerCount: 2
Back
Fore
SplineSet
96 32 m 1
 96 64 l 1
 96 96 l 1
 96 128 l 1
 128 128 l 1
 160 128 l 1
 160 96 l 1
 160 64 l 1
 160 32 l 1
 128 32 l 1
 96 32 l 1
96 160 m 1
 96 192 l 1
 96 224 l 1
 96 256 l 1
 128 256 l 1
 160 256 l 1
 160 224 l 1
 160 192 l 1
 160 160 l 1
 128 160 l 1
 96 160 l 1
96 288 m 1
 96 320 l 1
 96 352 l 1
 96 384 l 1
 128 384 l 1
 160 384 l 1
 160 352 l 1
 160 320 l 1
 160 288 l 1
 128 288 l 1
 96 288 l 1
96 416 m 1
 96 448 l 1
 96 480 l 1
 96 512 l 1
 128 512 l 1
 160 512 l 1
 160 480 l 1
 160 448 l 1
 160 416 l 1
 128 416 l 1
 96 416 l 1
192 416 m 1
 192 448 l 1
 192 480 l 1
 192 512 l 1
 224 512 l 1
 256 512 l 1
 256 480 l 1
 256 448 l 1
 256 416 l 1
 224 416 l 1
 192 416 l 1
288 416 m 1
 288 448 l 1
 288 480 l 1
 288 512 l 1
 320 512 l 1
 352 512 l 1
 352 480 l 1
 352 448 l 1
 352 416 l 1
 320 416 l 1
 288 416 l 1
384 416 m 1
 384 448 l 1
 384 480 l 1
 384 512 l 1
 416 512 l 1
 448 512 l 1
 448 480 l 1
 448 448 l 1
 448 416 l 1
 416 416 l 1
 384 416 l 1
96 544 m 1
 96 576 l 1
 96 608 l 1
 96 640 l 1
 128 640 l 1
 160 640 l 1
 160 608 l 1
 160 576 l 1
 160 544 l 1
 128 544 l 1
 96 544 l 1
96 672 m 1
 96 704 l 1
 96 736 l 1
 96 768 l 1
 128 768 l 1
 160 768 l 1
 160 736 l 1
 160 704 l 1
 160 672 l 1
 128 672 l 1
 96 672 l 1
96 800 m 1
 96 832 l 1
 96 864 l 1
 96 896 l 1
 128 896 l 1
 160 896 l 1
 160 864 l 1
 160 832 l 1
 160 800 l 1
 128 800 l 1
 96 800 l 1
192 800 m 1
 192 832 l 1
 192 864 l 1
 192 896 l 1
 224 896 l 1
 256 896 l 1
 256 864 l 1
 256 832 l 1
 256 800 l 1
 224 800 l 1
 192 800 l 1
288 800 m 1
 288 832 l 1
 288 864 l 1
 288 896 l 1
 320 896 l 1
 352 896 l 1
 352 864 l 1
 352 832 l 1
 352 800 l 1
 320 800 l 1
 288 800 l 1
384 800 m 1
 384 832 l 1
 384 864 l 1
 384 896 l 1
 416 896 l 1
 448 896 l 1
 448 864 l 1
 448 832 l 1
 448 800 l 1
 416 800 l 1
 384 800 l 1
480 800 m 1
 480 832 l 1
 480 864 l 1
 480 896 l 1
 512 896 l 1
 544 896 l 1
 544 864 l 1
 544 832 l 1
 544 800 l 1
 512 800 l 1
 480 800 l 1
EndSplineSet
EndChar

StartChar: G
Encoding: 71 71 23
Width: 672
VWidth: 0
Flags: HW
LayerCount: 2
Back
Fore
SplineSet
192 32 m 1
 192 64 l 1
 192 96 l 1
 192 128 l 1
 224 128 l 1
 256 128 l 1
 256 96 l 1
 256 64 l 1
 256 32 l 1
 224 32 l 1
 192 32 l 1
288 32 m 1
 288 64 l 1
 288 96 l 1
 288 128 l 1
 320 128 l 1
 352 128 l 1
 352 96 l 1
 352 64 l 1
 352 32 l 1
 320 32 l 1
 288 32 l 1
384 32 m 1
 384 64 l 1
 384 96 l 1
 384 128 l 1
 416 128 l 1
 448 128 l 1
 448 96 l 1
 448 64 l 1
 448 32 l 1
 416 32 l 1
 384 32 l 1
480 32 m 1
 480 64 l 1
 480 96 l 1
 480 128 l 1
 512 128 l 1
 544 128 l 1
 544 96 l 1
 544 64 l 1
 544 32 l 1
 512 32 l 1
 480 32 l 1
96 160 m 1
 96 192 l 1
 96 224 l 1
 96 256 l 1
 128 256 l 1
 160 256 l 1
 160 224 l 1
 160 192 l 1
 160 160 l 1
 128 160 l 1
 96 160 l 1
480 160 m 1
 480 192 l 1
 480 224 l 1
 480 256 l 1
 512 256 l 1
 544 256 l 1
 544 224 l 1
 544 192 l 1
 544 160 l 1
 512 160 l 1
 480 160 l 1
96 288 m 1
 96 320 l 1
 96 352 l 1
 96 384 l 1
 128 384 l 1
 160 384 l 1
 160 352 l 1
 160 320 l 1
 160 288 l 1
 128 288 l 1
 96 288 l 1
384 288 m 1
 384 320 l 1
 384 352 l 1
 384 384 l 1
 416 384 l 1
 448 384 l 1
 448 352 l 1
 448 320 l 1
 448 288 l 1
 416 288 l 1
 384 288 l 1
480 288 m 1
 480 320 l 1
 480 352 l 1
 480 384 l 1
 512 384 l 1
 544 384 l 1
 544 352 l 1
 544 320 l 1
 544 288 l 1
 512 288 l 1
 480 288 l 1
96 416 m 1
 96 448 l 1
 96 480 l 1
 96 512 l 1
 128 512 l 1
 160 512 l 1
 160 480 l 1
 160 448 l 1
 160 416 l 1
 128 416 l 1
 96 416 l 1
96 544 m 1
 96 576 l 1
 96 608 l 1
 96 640 l 1
 128 640 l 1
 160 640 l 1
 160 608 l 1
 160 576 l 1
 160 544 l 1
 128 544 l 1
 96 544 l 1
96 672 m 1
 96 704 l 1
 96 736 l 1
 96 768 l 1
 128 768 l 1
 160 768 l 1
 160 736 l 1
 160 704 l 1
 160 672 l 1
 128 672 l 1
 96 672 l 1
480 672 m 1
 480 704 l 1
 480 736 l 1
 480 768 l 1
 512 768 l 1
 544 768 l 1
 544 736 l 1
 544 704 l 1
 544 672 l 1
 512 672 l 1
 480 672 l 1
192 800 m 1
 192 832 l 1
 192 864 l 1
 192 896 l 1
 224 896 l 1
 256 896 l 1
 256 864 l 1
 256 832 l 1
 256 800 l 1
 224 800 l 1
 192 800 l 1
288 800 m 1
 288 832 l 1
 288 864 l 1
 288 896 l 1
 320 896 l 1
 352 896 l 1
 352 864 l 1
 352 832 l 1
 352 800 l 1
 320 800 l 1
 288 800 l 1
384 800 m 1
 384 832 l 1
 384 864 l 1
 384 896 l 1
 416 896 l 1
 448 896 l 1
 448 864 l 1
 448 832 l 1
 448 800 l 1
 416 800 l 1
 384 800 l 1
EndSplineSet
EndChar

StartChar: H
Encoding: 72 72 24
Width: 672
VWidth: 0
Flags: HW
LayerCount: 2
Back
Fore
SplineSet
96 32 m 1
 96 64 l 1
 96 96 l 1
 96 128 l 1
 128 128 l 1
 160 128 l 1
 160 96 l 1
 160 64 l 1
 160 32 l 1
 128 32 l 1
 96 32 l 1
480 32 m 1
 480 64 l 1
 480 96 l 1
 480 128 l 1
 512 128 l 1
 544 128 l 1
 544 96 l 1
 544 64 l 1
 544 32 l 1
 512 32 l 1
 480 32 l 1
96 160 m 1
 96 192 l 1
 96 224 l 1
 96 256 l 1
 128 256 l 1
 160 256 l 1
 160 224 l 1
 160 192 l 1
 160 160 l 1
 128 160 l 1
 96 160 l 1
480 160 m 1
 480 192 l 1
 480 224 l 1
 480 256 l 1
 512 256 l 1
 544 256 l 1
 544 224 l 1
 544 192 l 1
 544 160 l 1
 512 160 l 1
 480 160 l 1
96 288 m 1
 96 320 l 1
 96 352 l 1
 96 384 l 1
 128 384 l 1
 160 384 l 1
 160 352 l 1
 160 320 l 1
 160 288 l 1
 128 288 l 1
 96 288 l 1
480 288 m 1
 480 320 l 1
 480 352 l 1
 480 384 l 1
 512 384 l 1
 544 384 l 1
 544 352 l 1
 544 320 l 1
 544 288 l 1
 512 288 l 1
 480 288 l 1
96 416 m 1
 96 448 l 1
 96 480 l 1
 96 512 l 1
 128 512 l 1
 160 512 l 1
 160 480 l 1
 160 448 l 1
 160 416 l 1
 128 416 l 1
 96 416 l 1
192 416 m 1
 192 448 l 1
 192 480 l 1
 192 512 l 1
 224 512 l 1
 256 512 l 1
 256 480 l 1
 256 448 l 1
 256 416 l 1
 224 416 l 1
 192 416 l 1
288 416 m 1
 288 448 l 1
 288 480 l 1
 288 512 l 1
 320 512 l 1
 352 512 l 1
 352 480 l 1
 352 448 l 1
 352 416 l 1
 320 416 l 1
 288 416 l 1
384 416 m 1
 384 448 l 1
 384 480 l 1
 384 512 l 1
 416 512 l 1
 448 512 l 1
 448 480 l 1
 448 448 l 1
 448 416 l 1
 416 416 l 1
 384 416 l 1
480 416 m 1
 480 448 l 1
 480 480 l 1
 480 512 l 1
 512 512 l 1
 544 512 l 1
 544 480 l 1
 544 448 l 1
 544 416 l 1
 512 416 l 1
 480 416 l 1
96 544 m 1
 96 576 l 1
 96 608 l 1
 96 640 l 1
 128 640 l 1
 160 640 l 1
 160 608 l 1
 160 576 l 1
 160 544 l 1
 128 544 l 1
 96 544 l 1
480 544 m 1
 480 576 l 1
 480 608 l 1
 480 640 l 1
 512 640 l 1
 544 640 l 1
 544 608 l 1
 544 576 l 1
 544 544 l 1
 512 544 l 1
 480 544 l 1
96 672 m 1
 96 704 l 1
 96 736 l 1
 96 768 l 1
 128 768 l 1
 160 768 l 1
 160 736 l 1
 160 704 l 1
 160 672 l 1
 128 672 l 1
 96 672 l 1
480 672 m 1
 480 704 l 1
 480 736 l 1
 480 768 l 1
 512 768 l 1
 544 768 l 1
 544 736 l 1
 544 704 l 1
 544 672 l 1
 512 672 l 1
 480 672 l 1
96 800 m 1
 96 832 l 1
 96 864 l 1
 96 896 l 1
 128 896 l 1
 160 896 l 1
 160 864 l 1
 160 832 l 1
 160 800 l 1
 128 800 l 1
 96 800 l 1
480 800 m 1
 480 832 l 1
 480 864 l 1
 480 896 l 1
 512 896 l 1
 544 896 l 1
 544 864 l 1
 544 832 l 1
 544 800 l 1
 512 800 l 1
 480 800 l 1
EndSplineSet
EndChar

StartChar: I
Encoding: 73 73 25
Width: 672
VWidth: 0
Flags: HW
LayerCount: 2
Back
Fore
SplineSet
192 32 m 1
 192 64 l 1
 192 96 l 1
 192 128 l 1
 224 128 l 1
 256 128 l 1
 256 96 l 1
 256 64 l 1
 256 32 l 1
 224 32 l 1
 192 32 l 1
288 32 m 1
 288 64 l 1
 288 96 l 1
 288 128 l 1
 320 128 l 1
 352 128 l 1
 352 96 l 1
 352 64 l 1
 352 32 l 1
 320 32 l 1
 288 32 l 1
384 32 m 1
 384 64 l 1
 384 96 l 1
 384 128 l 1
 416 128 l 1
 448 128 l 1
 448 96 l 1
 448 64 l 1
 448 32 l 1
 416 32 l 1
 384 32 l 1
288 160 m 1
 288 192 l 1
 288 224 l 1
 288 256 l 1
 320 256 l 1
 352 256 l 1
 352 224 l 1
 352 192 l 1
 352 160 l 1
 320 160 l 1
 288 160 l 1
288 288 m 1
 288 320 l 1
 288 352 l 1
 288 384 l 1
 320 384 l 1
 352 384 l 1
 352 352 l 1
 352 320 l 1
 352 288 l 1
 320 288 l 1
 288 288 l 1
288 416 m 1
 288 448 l 1
 288 480 l 1
 288 512 l 1
 320 512 l 1
 352 512 l 1
 352 480 l 1
 352 448 l 1
 352 416 l 1
 320 416 l 1
 288 416 l 1
288 544 m 1
 288 576 l 1
 288 608 l 1
 288 640 l 1
 320 640 l 1
 352 640 l 1
 352 608 l 1
 352 576 l 1
 352 544 l 1
 320 544 l 1
 288 544 l 1
288 672 m 1
 288 704 l 1
 288 736 l 1
 288 768 l 1
 320 768 l 1
 352 768 l 1
 352 736 l 1
 352 704 l 1
 352 672 l 1
 320 672 l 1
 288 672 l 1
192 800 m 1
 192 832 l 1
 192 864 l 1
 192 896 l 1
 224 896 l 1
 256 896 l 1
 256 864 l 1
 256 832 l 1
 256 800 l 1
 224 800 l 1
 192 800 l 1
288 800 m 1
 288 832 l 1
 288 864 l 1
 288 896 l 1
 320 896 l 1
 352 896 l 1
 352 864 l 1
 352 832 l 1
 352 800 l 1
 320 800 l 1
 288 800 l 1
384 800 m 1
 384 832 l 1
 384 864 l 1
 384 896 l 1
 416 896 l 1
 448 896 l 1
 448 864 l 1
 448 832 l 1
 448 800 l 1
 416 800 l 1
 384 800 l 1
EndSplineSet
EndChar

StartChar: J
Encoding: 74 74 26
Width: 672
VWidth: 0
Flags: HW
LayerCount: 2
Back
Fore
SplineSet
192 32 m 1
 192 64 l 1
 192 96 l 1
 192 128 l 1
 224 128 l 1
 256 128 l 1
 256 96 l 1
 256 64 l 1
 256 32 l 1
 224 32 l 1
 192 32 l 1
288 32 m 1
 288 64 l 1
 288 96 l 1
 288 128 l 1
 320 128 l 1
 352 128 l 1
 352 96 l 1
 352 64 l 1
 352 32 l 1
 320 32 l 1
 288 32 l 1
384 32 m 1
 384 64 l 1
 384 96 l 1
 384 128 l 1
 416 128 l 1
 448 128 l 1
 448 96 l 1
 448 64 l 1
 448 32 l 1
 416 32 l 1
 384 32 l 1
96 160 m 1
 96 192 l 1
 96 224 l 1
 96 256 l 1
 128 256 l 1
 160 256 l 1
 160 224 l 1
 160 192 l 1
 160 160 l 1
 128 160 l 1
 96 160 l 1
480 160 m 1
 480 192 l 1
 480 224 l 1
 480 256 l 1
 512 256 l 1
 544 256 l 1
 544 224 l 1
 544 192 l 1
 544 160 l 1
 512 160 l 1
 480 160 l 1
480 288 m 1
 480 320 l 1
 480 352 l 1
 480 384 l 1
 512 384 l 1
 544 384 l 1
 544 352 l 1
 544 320 l 1
 544 288 l 1
 512 288 l 1
 480 288 l 1
480 416 m 1
 480 448 l 1
 480 480 l 1
 480 512 l 1
 512 512 l 1
 544 512 l 1
 544 480 l 1
 544 448 l 1
 544 416 l 1
 512 416 l 1
 480 416 l 1
480 544 m 1
 480 576 l 1
 480 608 l 1
 480 640 l 1
 512 640 l 1
 544 640 l 1
 544 608 l 1
 544 576 l 1
 544 544 l 1
 512 544 l 1
 480 544 l 1
480 672 m 1
 480 704 l 1
 480 736 l 1
 480 768 l 1
 512 768 l 1
 544 768 l 1
 544 736 l 1
 544 704 l 1
 544 672 l 1
 512 672 l 1
 480 672 l 1
480 800 m 1
 480 832 l 1
 480 864 l 1
 480 896 l 1
 512 896 l 1
 544 896 l 1
 544 864 l 1
 544 832 l 1
 544 800 l 1
 512 800 l 1
 480 800 l 1
EndSplineSet
EndChar

StartChar: K
Encoding: 75 75 27
Width: 672
VWidth: 0
Flags: HW
LayerCount: 2
Back
Fore
SplineSet
96 32 m 1
 96 64 l 1
 96 96 l 1
 96 128 l 1
 128 128 l 1
 160 128 l 1
 160 96 l 1
 160 64 l 1
 160 32 l 1
 128 32 l 1
 96 32 l 1
480 32 m 1
 480 64 l 1
 480 96 l 1
 480 128 l 1
 512 128 l 1
 544 128 l 1
 544 96 l 1
 544 64 l 1
 544 32 l 1
 512 32 l 1
 480 32 l 1
96 160 m 1
 96 192 l 1
 96 224 l 1
 96 256 l 1
 128 256 l 1
 160 256 l 1
 160 224 l 1
 160 192 l 1
 160 160 l 1
 128 160 l 1
 96 160 l 1
384 160 m 1
 384 192 l 1
 384 224 l 1
 384 256 l 1
 416 256 l 1
 448 256 l 1
 448 224 l 1
 448 192 l 1
 448 160 l 1
 416 160 l 1
 384 160 l 1
96 288 m 1
 96 320 l 1
 96 352 l 1
 96 384 l 1
 128 384 l 1
 160 384 l 1
 160 352 l 1
 160 320 l 1
 160 288 l 1
 128 288 l 1
 96 288 l 1
288 288 m 1
 288 320 l 1
 288 352 l 1
 288 384 l 1
 320 384 l 1
 352 384 l 1
 352 352 l 1
 352 320 l 1
 352 288 l 1
 320 288 l 1
 288 288 l 1
96 416 m 1
 96 448 l 1
 96 480 l 1
 96 512 l 1
 128 512 l 1
 160 512 l 1
 160 480 l 1
 160 448 l 1
 160 416 l 1
 128 416 l 1
 96 416 l 1
192 416 m 1
 192 448 l 1
 192 480 l 1
 192 512 l 1
 224 512 l 1
 256 512 l 1
 256 480 l 1
 256 448 l 1
 256 416 l 1
 224 416 l 1
 192 416 l 1
96 544 m 1
 96 576 l 1
 96 608 l 1
 96 640 l 1
 128 640 l 1
 160 640 l 1
 160 608 l 1
 160 576 l 1
 160 544 l 1
 128 544 l 1
 96 544 l 1
288 544 m 1
 288 576 l 1
 288 608 l 1
 288 640 l 1
 320 640 l 1
 352 640 l 1
 352 608 l 1
 352 576 l 1
 352 544 l 1
 320 544 l 1
 288 544 l 1
96 672 m 1
 96 704 l 1
 96 736 l 1
 96 768 l 1
 128 768 l 1
 160 768 l 1
 160 736 l 1
 160 704 l 1
 160 672 l 1
 128 672 l 1
 96 672 l 1
384 672 m 1
 384 704 l 1
 384 736 l 1
 384 768 l 1
 416 768 l 1
 448 768 l 1
 448 736 l 1
 448 704 l 1
 448 672 l 1
 416 672 l 1
 384 672 l 1
96 800 m 1
 96 832 l 1
 96 864 l 1
 96 896 l 1
 128 896 l 1
 160 896 l 1
 160 864 l 1
 160 832 l 1
 160 800 l 1
 128 800 l 1
 96 800 l 1
480 800 m 1
 480 832 l 1
 480 864 l 1
 480 896 l 1
 512 896 l 1
 544 896 l 1
 544 864 l 1
 544 832 l 1
 544 800 l 1
 512 800 l 1
 480 800 l 1
EndSplineSet
EndChar

StartChar: L
Encoding: 76 76 28
Width: 672
VWidth: 0
Flags: HW
LayerCount: 2
Back
Fore
SplineSet
96 32 m 1
 96 64 l 1
 96 96 l 1
 96 128 l 1
 128 128 l 1
 160 128 l 1
 160 96 l 1
 160 64 l 1
 160 32 l 1
 128 32 l 1
 96 32 l 1
192 32 m 1
 192 64 l 1
 192 96 l 1
 192 128 l 1
 224 128 l 1
 256 128 l 1
 256 96 l 1
 256 64 l 1
 256 32 l 1
 224 32 l 1
 192 32 l 1
288 32 m 1
 288 64 l 1
 288 96 l 1
 288 128 l 1
 320 128 l 1
 352 128 l 1
 352 96 l 1
 352 64 l 1
 352 32 l 1
 320 32 l 1
 288 32 l 1
384 32 m 1
 384 64 l 1
 384 96 l 1
 384 128 l 1
 416 128 l 1
 448 128 l 1
 448 96 l 1
 448 64 l 1
 448 32 l 1
 416 32 l 1
 384 32 l 1
480 32 m 1
 480 64 l 1
 480 96 l 1
 480 128 l 1
 512 128 l 1
 544 128 l 1
 544 96 l 1
 544 64 l 1
 544 32 l 1
 512 32 l 1
 480 32 l 1
96 160 m 1
 96 192 l 1
 96 224 l 1
 96 256 l 1
 128 256 l 1
 160 256 l 1
 160 224 l 1
 160 192 l 1
 160 160 l 1
 128 160 l 1
 96 160 l 1
96 288 m 1
 96 320 l 1
 96 352 l 1
 96 384 l 1
 128 384 l 1
 160 384 l 1
 160 352 l 1
 160 320 l 1
 160 288 l 1
 128 288 l 1
 96 288 l 1
96 416 m 1
 96 448 l 1
 96 480 l 1
 96 512 l 1
 128 512 l 1
 160 512 l 1
 160 480 l 1
 160 448 l 1
 160 416 l 1
 128 416 l 1
 96 416 l 1
96 544 m 1
 96 576 l 1
 96 608 l 1
 96 640 l 1
 128 640 l 1
 160 640 l 1
 160 608 l 1
 160 576 l 1
 160 544 l 1
 128 544 l 1
 96 544 l 1
96 672 m 1
 96 704 l 1
 96 736 l 1
 96 768 l 1
 128 768 l 1
 160 768 l 1
 160 736 l 1
 160 704 l 1
 160 672 l 1
 128 672 l 1
 96 672 l 1
96 800 m 1
 96 832 l 1
 96 864 l 1
 96 896 l 1
 128 896 l 1
 160 896 l 1
 160 864 l 1
 160 832 l 1
 160 800 l 1
 128 800 l 1
 96 800 l 1
EndSplineSet
EndChar

StartChar: M
Encoding: 77 77 29
Width: 672
VWidth: 0
Flags: HW
LayerCount: 2
Back
Fore
SplineSet
96 32 m 1
 96 64 l 1
 96 96 l 1
 96 128 l 1
 128 128 l 1
 160 128 l 1
 160 96 l 1
 160 64 l 1
 160 32 l 1
 128 32 l 1
 96 32 l 1
480 32 m 1
 480 64 l 1
 480 96 l 1
 480 128 l 1
 512 128 l 1
 544 128 l 1
 544 96 l 1
 544 64 l 1
 544 32 l 1
 512 32 l 1
 480 32 l 1
96 160 m 1
 96 192 l 1
 96 224 l 1
 96 256 l 1
 128 256 l 1
 160 256 l 1
 160 224 l 1
 160 192 l 1
 160 160 l 1
 128 160 l 1
 96 160 l 1
480 160 m 1
 480 192 l 1
 480 224 l 1
 480 256 l 1
 512 256 l 1
 544 256 l 1
 544 224 l 1
 544 192 l 1
 544 160 l 1
 512 160 l 1
 480 160 l 1
96 288 m 1
 96 320 l 1
 96 352 l 1
 96 384 l 1
 128 384 l 1
 160 384 l 1
 160 352 l 1
 160 320 l 1
 160 288 l 1
 128 288 l 1
 96 288 l 1
480 288 m 1
 480 320 l 1
 480 352 l 1
 480 384 l 1
 512 384 l 1
 544 384 l 1
 544 352 l 1
 544 320 l 1
 544 288 l 1
 512 288 l 1
 480 288 l 1
96 416 m 1
 96 448 l 1
 96 480 l 1
 96 512 l 1
 128 512 l 1
 160 512 l 1
 160 480 l 1
 160 448 l 1
 160 416 l 1
 128 416 l 1
 96 416 l 1
288 416 m 1
 288 448 l 1
 288 480 l 1
 288 512 l 1
 320 512 l 1
 352 512 l 1
 352 480 l 1
 352 448 l 1
 352 416 l 1
 320 416 l 1
 288 416 l 1
480 416 m 1
 480 448 l 1
 480 480 l 1
 480 512 l 1
 512 512 l 1
 544 512 l 1
 544 480 l 1
 544 448 l 1
 544 416 l 1
 512 416 l 1
 480 416 l 1
96 544 m 1
 96 576 l 1
 96 608 l 1
 96 640 l 1
 128 640 l 1
 160 640 l 1
 160 608 l 1
 160 576 l 1
 160 544 l 1
 128 544 l 1
 96 544 l 1
288 544 m 1
 288 576 l 1
 288 608 l 1
 288 640 l 1
 320 640 l 1
 352 640 l 1
 352 608 l 1
 352 576 l 1
 352 544 l 1
 320 544 l 1
 288 544 l 1
480 544 m 1
 480 576 l 1
 480 608 l 1
 480 640 l 1
 512 640 l 1
 544 640 l 1
 544 608 l 1
 544 576 l 1
 544 544 l 1
 512 544 l 1
 480 544 l 1
96 672 m 1
 96 704 l 1
 96 736 l 1
 96 768 l 1
 128 768 l 1
 160 768 l 1
 160 736 l 1
 160 704 l 1
 160 672 l 1
 128 672 l 1
 96 672 l 1
192 672 m 1
 192 704 l 1
 192 736 l 1
 192 768 l 1
 224 768 l 1
 256 768 l 1
 256 736 l 1
 256 704 l 1
 256 672 l 1
 224 672 l 1
 192 672 l 1
384 672 m 1
 384 704 l 1
 384 736 l 1
 384 768 l 1
 416 768 l 1
 448 768 l 1
 448 736 l 1
 448 704 l 1
 448 672 l 1
 416 672 l 1
 384 672 l 1
480 672 m 1
 480 704 l 1
 480 736 l 1
 480 768 l 1
 512 768 l 1
 544 768 l 1
 544 736 l 1
 544 704 l 1
 544 672 l 1
 512 672 l 1
 480 672 l 1
96 800 m 1
 96 832 l 1
 96 864 l 1
 96 896 l 1
 128 896 l 1
 160 896 l 1
 160 864 l 1
 160 832 l 1
 160 800 l 1
 128 800 l 1
 96 800 l 1
480 800 m 1
 480 832 l 1
 480 864 l 1
 480 896 l 1
 512 896 l 1
 544 896 l 1
 544 864 l 1
 544 832 l 1
 544 800 l 1
 512 800 l 1
 480 800 l 1
EndSplineSet
EndChar

StartChar: N
Encoding: 78 78 30
Width: 672
VWidth: 0
Flags: HW
LayerCount: 2
Back
Fore
SplineSet
96 32 m 1
 96 64 l 1
 96 96 l 1
 96 128 l 1
 128 128 l 1
 160 128 l 1
 160 96 l 1
 160 64 l 1
 160 32 l 1
 128 32 l 1
 96 32 l 1
480 32 m 1
 480 64 l 1
 480 96 l 1
 480 128 l 1
 512 128 l 1
 544 128 l 1
 544 96 l 1
 544 64 l 1
 544 32 l 1
 512 32 l 1
 480 32 l 1
96 160 m 1
 96 192 l 1
 96 224 l 1
 96 256 l 1
 128 256 l 1
 160 256 l 1
 160 224 l 1
 160 192 l 1
 160 160 l 1
 128 160 l 1
 96 160 l 1
480 160 m 1
 480 192 l 1
 480 224 l 1
 480 256 l 1
 512 256 l 1
 544 256 l 1
 544 224 l 1
 544 192 l 1
 544 160 l 1
 512 160 l 1
 480 160 l 1
96 288 m 1
 96 320 l 1
 96 352 l 1
 96 384 l 1
 128 384 l 1
 160 384 l 1
 160 352 l 1
 160 320 l 1
 160 288 l 1
 128 288 l 1
 96 288 l 1
384 288 m 1
 384 320 l 1
 384 352 l 1
 384 384 l 1
 416 384 l 1
 448 384 l 1
 448 352 l 1
 448 320 l 1
 448 288 l 1
 416 288 l 1
 384 288 l 1
480 288 m 1
 480 320 l 1
 480 352 l 1
 480 384 l 1
 512 384 l 1
 544 384 l 1
 544 352 l 1
 544 320 l 1
 544 288 l 1
 512 288 l 1
 480 288 l 1
96 416 m 1
 96 448 l 1
 96 480 l 1
 96 512 l 1
 128 512 l 1
 160 512 l 1
 160 480 l 1
 160 448 l 1
 160 416 l 1
 128 416 l 1
 96 416 l 1
288 416 m 1
 288 448 l 1
 288 480 l 1
 288 512 l 1
 320 512 l 1
 352 512 l 1
 352 480 l 1
 352 448 l 1
 352 416 l 1
 320 416 l 1
 288 416 l 1
480 416 m 1
 480 448 l 1
 480 480 l 1
 480 512 l 1
 512 512 l 1
 544 512 l 1
 544 480 l 1
 544 448 l 1
 544 416 l 1
 512 416 l 1
 480 416 l 1
96 544 m 1
 96 576 l 1
 96 608 l 1
 96 640 l 1
 128 640 l 1
 160 640 l 1
 160 608 l 1
 160 576 l 1
 160 544 l 1
 128 544 l 1
 96 544 l 1
192 544 m 1
 192 576 l 1
 192 608 l 1
 192 640 l 1
 224 640 l 1
 256 640 l 1
 256 608 l 1
 256 576 l 1
 256 544 l 1
 224 544 l 1
 192 544 l 1
480 544 m 1
 480 576 l 1
 480 608 l 1
 480 640 l 1
 512 640 l 1
 544 640 l 1
 544 608 l 1
 544 576 l 1
 544 544 l 1
 512 544 l 1
 480 544 l 1
96 672 m 1
 96 704 l 1
 96 736 l 1
 96 768 l 1
 128 768 l 1
 160 768 l 1
 160 736 l 1
 160 704 l 1
 160 672 l 1
 128 672 l 1
 96 672 l 1
480 672 m 1
 480 704 l 1
 480 736 l 1
 480 768 l 1
 512 768 l 1
 544 768 l 1
 544 736 l 1
 544 704 l 1
 544 672 l 1
 512 672 l 1
 480 672 l 1
96 800 m 1
 96 832 l 1
 96 864 l 1
 96 896 l 1
 128 896 l 1
 160 896 l 1
 160 864 l 1
 160 832 l 1
 160 800 l 1
 128 800 l 1
 96 800 l 1
480 800 m 1
 480 832 l 1
 480 864 l 1
 480 896 l 1
 512 896 l 1
 544 896 l 1
 544 864 l 1
 544 832 l 1
 544 800 l 1
 512 800 l 1
 480 800 l 1
EndSplineSet
EndChar

StartChar: O
Encoding: 79 79 31
Width: 672
VWidth: 0
Flags: HW
LayerCount: 2
Back
Fore
SplineSet
192 32 m 1
 192 64 l 1
 192 96 l 1
 192 128 l 1
 224 128 l 1
 256 128 l 1
 256 96 l 1
 256 64 l 1
 256 32 l 1
 224 32 l 1
 192 32 l 1
288 32 m 1
 288 64 l 1
 288 96 l 1
 288 128 l 1
 320 128 l 1
 352 128 l 1
 352 96 l 1
 352 64 l 1
 352 32 l 1
 320 32 l 1
 288 32 l 1
384 32 m 1
 384 64 l 1
 384 96 l 1
 384 128 l 1
 416 128 l 1
 448 128 l 1
 448 96 l 1
 448 64 l 1
 448 32 l 1
 416 32 l 1
 384 32 l 1
96 160 m 1
 96 192 l 1
 96 224 l 1
 96 256 l 1
 128 256 l 1
 160 256 l 1
 160 224 l 1
 160 192 l 1
 160 160 l 1
 128 160 l 1
 96 160 l 1
480 160 m 1
 480 192 l 1
 480 224 l 1
 480 256 l 1
 512 256 l 1
 544 256 l 1
 544 224 l 1
 544 192 l 1
 544 160 l 1
 512 160 l 1
 480 160 l 1
96 288 m 1
 96 320 l 1
 96 352 l 1
 96 384 l 1
 128 384 l 1
 160 384 l 1
 160 352 l 1
 160 320 l 1
 160 288 l 1
 128 288 l 1
 96 288 l 1
480 288 m 1
 480 320 l 1
 480 352 l 1
 480 384 l 1
 512 384 l 1
 544 384 l 1
 544 352 l 1
 544 320 l 1
 544 288 l 1
 512 288 l 1
 480 288 l 1
96 416 m 1
 96 448 l 1
 96 480 l 1
 96 512 l 1
 128 512 l 1
 160 512 l 1
 160 480 l 1
 160 448 l 1
 160 416 l 1
 128 416 l 1
 96 416 l 1
480 416 m 1
 480 448 l 1
 480 480 l 1
 480 512 l 1
 512 512 l 1
 544 512 l 1
 544 480 l 1
 544 448 l 1
 544 416 l 1
 512 416 l 1
 480 416 l 1
96 544 m 1
 96 576 l 1
 96 608 l 1
 96 640 l 1
 128 640 l 1
 160 640 l 1
 160 608 l 1
 160 576 l 1
 160 544 l 1
 128 544 l 1
 96 544 l 1
480 544 m 1
 480 576 l 1
 480 608 l 1
 480 640 l 1
 512 640 l 1
 544 640 l 1
 544 608 l 1
 544 576 l 1
 544 544 l 1
 512 544 l 1
 480 544 l 1
96 672 m 1
 96 704 l 1
 96 736 l 1
 96 768 l 1
 128 768 l 1
 160 768 l 1
 160 736 l 1
 160 704 l 1
 160 672 l 1
 128 672 l 1
 96 672 l 1
480 672 m 1
 480 704 l 1
 480 736 l 1
 480 768 l 1
 512 768 l 1
 544 768 l 1
 544 736 l 1
 544 704 l 1
 544 672 l 1
 512 672 l 1
 480 672 l 1
192 800 m 1
 192 832 l 1
 192 864 l 1
 192 896 l 1
 224 896 l 1
 256 896 l 1
 256 864 l 1
 256 832 l 1
 256 800 l 1
 224 800 l 1
 192 800 l 1
288 800 m 1
 288 832 l 1
 288 864 l 1
 288 896 l 1
 320 896 l 1
 352 896 l 1
 352 864 l 1
 352 832 l 1
 352 800 l 1
 320 800 l 1
 288 800 l 1
384 800 m 1
 384 832 l 1
 384 864 l 1
 384 896 l 1
 416 896 l 1
 448 896 l 1
 448 864 l 1
 448 832 l 1
 448 800 l 1
 416 800 l 1
 384 800 l 1
EndSplineSet
EndChar

StartChar: P
Encoding: 80 80 32
Width: 672
VWidth: 0
Flags: HW
LayerCount: 2
Back
Fore
SplineSet
96 32 m 1
 96 64 l 1
 96 96 l 1
 96 128 l 1
 128 128 l 1
 160 128 l 1
 160 96 l 1
 160 64 l 1
 160 32 l 1
 128 32 l 1
 96 32 l 1
96 160 m 1
 96 192 l 1
 96 224 l 1
 96 256 l 1
 128 256 l 1
 160 256 l 1
 160 224 l 1
 160 192 l 1
 160 160 l 1
 128 160 l 1
 96 160 l 1
96 288 m 1
 96 320 l 1
 96 352 l 1
 96 384 l 1
 128 384 l 1
 160 384 l 1
 160 352 l 1
 160 320 l 1
 160 288 l 1
 128 288 l 1
 96 288 l 1
96 416 m 1
 96 448 l 1
 96 480 l 1
 96 512 l 1
 128 512 l 1
 160 512 l 1
 160 480 l 1
 160 448 l 1
 160 416 l 1
 128 416 l 1
 96 416 l 1
192 416 m 1
 192 448 l 1
 192 480 l 1
 192 512 l 1
 224 512 l 1
 256 512 l 1
 256 480 l 1
 256 448 l 1
 256 416 l 1
 224 416 l 1
 192 416 l 1
288 416 m 1
 288 448 l 1
 288 480 l 1
 288 512 l 1
 320 512 l 1
 352 512 l 1
 352 480 l 1
 352 448 l 1
 352 416 l 1
 320 416 l 1
 288 416 l 1
384 416 m 1
 384 448 l 1
 384 480 l 1
 384 512 l 1
 416 512 l 1
 448 512 l 1
 448 480 l 1
 448 448 l 1
 448 416 l 1
 416 416 l 1
 384 416 l 1
96 544 m 1
 96 576 l 1
 96 608 l 1
 96 640 l 1
 128 640 l 1
 160 640 l 1
 160 608 l 1
 160 576 l 1
 160 544 l 1
 128 544 l 1
 96 544 l 1
480 544 m 1
 480 576 l 1
 480 608 l 1
 480 640 l 1
 512 640 l 1
 544 640 l 1
 544 608 l 1
 544 576 l 1
 544 544 l 1
 512 544 l 1
 480 544 l 1
96 672 m 1
 96 704 l 1
 96 736 l 1
 96 768 l 1
 128 768 l 1
 160 768 l 1
 160 736 l 1
 160 704 l 1
 160 672 l 1
 128 672 l 1
 96 672 l 1
480 672 m 1
 480 704 l 1
 480 736 l 1
 480 768 l 1
 512 768 l 1
 544 768 l 1
 544 736 l 1
 544 704 l 1
 544 672 l 1
 512 672 l 1
 480 672 l 1
96 800 m 1
 96 832 l 1
 96 864 l 1
 96 896 l 1
 128 896 l 1
 160 896 l 1
 160 864 l 1
 160 832 l 1
 160 800 l 1
 128 800 l 1
 96 800 l 1
192 800 m 1
 192 832 l 1
 192 864 l 1
 192 896 l 1
 224 896 l 1
 256 896 l 1
 256 864 l 1
 256 832 l 1
 256 800 l 1
 224 800 l 1
 192 800 l 1
288 800 m 1
 288 832 l 1
 288 864 l 1
 288 896 l 1
 320 896 l 1
 352 896 l 1
 352 864 l 1
 352 832 l 1
 352 800 l 1
 320 800 l 1
 288 800 l 1
384 800 m 1
 384 832 l 1
 384 864 l 1
 384 896 l 1
 416 896 l 1
 448 896 l 1
 448 864 l 1
 448 832 l 1
 448 800 l 1
 416 800 l 1
 384 800 l 1
EndSplineSet
EndChar

StartChar: Q
Encoding: 81 81 33
Width: 672
VWidth: 0
Flags: HW
LayerCount: 2
Back
Fore
SplineSet
192 32 m 1
 192 64 l 1
 192 96 l 1
 192 128 l 1
 224 128 l 1
 256 128 l 1
 256 96 l 1
 256 64 l 1
 256 32 l 1
 224 32 l 1
 192 32 l 1
288 32 m 1
 288 64 l 1
 288 96 l 1
 288 128 l 1
 320 128 l 1
 352 128 l 1
 352 96 l 1
 352 64 l 1
 352 32 l 1
 320 32 l 1
 288 32 l 1
480 32 m 1
 480 64 l 1
 480 96 l 1
 480 128 l 1
 512 128 l 1
 544 128 l 1
 544 96 l 1
 544 64 l 1
 544 32 l 1
 512 32 l 1
 480 32 l 1
96 160 m 1
 96 192 l 1
 96 224 l 1
 96 256 l 1
 128 256 l 1
 160 256 l 1
 160 224 l 1
 160 192 l 1
 160 160 l 1
 128 160 l 1
 96 160 l 1
384 160 m 1
 384 192 l 1
 384 224 l 1
 384 256 l 1
 416 256 l 1
 448 256 l 1
 448 224 l 1
 448 192 l 1
 448 160 l 1
 416 160 l 1
 384 160 l 1
96 288 m 1
 96 320 l 1
 96 352 l 1
 96 384 l 1
 128 384 l 1
 160 384 l 1
 160 352 l 1
 160 320 l 1
 160 288 l 1
 128 288 l 1
 96 288 l 1
288 288 m 1
 288 320 l 1
 288 352 l 1
 288 384 l 1
 320 384 l 1
 352 384 l 1
 352 352 l 1
 352 320 l 1
 352 288 l 1
 320 288 l 1
 288 288 l 1
480 288 m 1
 480 320 l 1
 480 352 l 1
 480 384 l 1
 512 384 l 1
 544 384 l 1
 544 352 l 1
 544 320 l 1
 544 288 l 1
 512 288 l 1
 480 288 l 1
96 416 m 1
 96 448 l 1
 96 480 l 1
 96 512 l 1
 128 512 l 1
 160 512 l 1
 160 480 l 1
 160 448 l 1
 160 416 l 1
 128 416 l 1
 96 416 l 1
480 416 m 1
 480 448 l 1
 480 480 l 1
 480 512 l 1
 512 512 l 1
 544 512 l 1
 544 480 l 1
 544 448 l 1
 544 416 l 1
 512 416 l 1
 480 416 l 1
96 544 m 1
 96 576 l 1
 96 608 l 1
 96 640 l 1
 128 640 l 1
 160 640 l 1
 160 608 l 1
 160 576 l 1
 160 544 l 1
 128 544 l 1
 96 544 l 1
480 544 m 1
 480 576 l 1
 480 608 l 1
 480 640 l 1
 512 640 l 1
 544 640 l 1
 544 608 l 1
 544 576 l 1
 544 544 l 1
 512 544 l 1
 480 544 l 1
96 672 m 1
 96 704 l 1
 96 736 l 1
 96 768 l 1
 128 768 l 1
 160 768 l 1
 160 736 l 1
 160 704 l 1
 160 672 l 1
 128 672 l 1
 96 672 l 1
480 672 m 1
 480 704 l 1
 480 736 l 1
 480 768 l 1
 512 768 l 1
 544 768 l 1
 544 736 l 1
 544 704 l 1
 544 672 l 1
 512 672 l 1
 480 672 l 1
192 800 m 1
 192 832 l 1
 192 864 l 1
 192 896 l 1
 224 896 l 1
 256 896 l 1
 256 864 l 1
 256 832 l 1
 256 800 l 1
 224 800 l 1
 192 800 l 1
288 800 m 1
 288 832 l 1
 288 864 l 1
 288 896 l 1
 320 896 l 1
 352 896 l 1
 352 864 l 1
 352 832 l 1
 352 800 l 1
 320 800 l 1
 288 800 l 1
384 800 m 1
 384 832 l 1
 384 864 l 1
 384 896 l 1
 416 896 l 1
 448 896 l 1
 448 864 l 1
 448 832 l 1
 448 800 l 1
 416 800 l 1
 384 800 l 1
EndSplineSet
EndChar

StartChar: R
Encoding: 82 82 34
Width: 672
VWidth: 0
Flags: HW
LayerCount: 2
Back
Fore
SplineSet
96 32 m 1
 96 64 l 1
 96 96 l 1
 96 128 l 1
 128 128 l 1
 160 128 l 1
 160 96 l 1
 160 64 l 1
 160 32 l 1
 128 32 l 1
 96 32 l 1
480 32 m 1
 480 64 l 1
 480 96 l 1
 480 128 l 1
 512 128 l 1
 544 128 l 1
 544 96 l 1
 544 64 l 1
 544 32 l 1
 512 32 l 1
 480 32 l 1
96 160 m 1
 96 192 l 1
 96 224 l 1
 96 256 l 1
 128 256 l 1
 160 256 l 1
 160 224 l 1
 160 192 l 1
 160 160 l 1
 128 160 l 1
 96 160 l 1
384 160 m 1
 384 192 l 1
 384 224 l 1
 384 256 l 1
 416 256 l 1
 448 256 l 1
 448 224 l 1
 448 192 l 1
 448 160 l 1
 416 160 l 1
 384 160 l 1
96 288 m 1
 96 320 l 1
 96 352 l 1
 96 384 l 1
 128 384 l 1
 160 384 l 1
 160 352 l 1
 160 320 l 1
 160 288 l 1
 128 288 l 1
 96 288 l 1
288 288 m 1
 288 320 l 1
 288 352 l 1
 288 384 l 1
 320 384 l 1
 352 384 l 1
 352 352 l 1
 352 320 l 1
 352 288 l 1
 320 288 l 1
 288 288 l 1
96 416 m 1
 96 448 l 1
 96 480 l 1
 96 512 l 1
 128 512 l 1
 160 512 l 1
 160 480 l 1
 160 448 l 1
 160 416 l 1
 128 416 l 1
 96 416 l 1
192 416 m 1
 192 448 l 1
 192 480 l 1
 192 512 l 1
 224 512 l 1
 256 512 l 1
 256 480 l 1
 256 448 l 1
 256 416 l 1
 224 416 l 1
 192 416 l 1
288 416 m 1
 288 448 l 1
 288 480 l 1
 288 512 l 1
 320 512 l 1
 352 512 l 1
 352 480 l 1
 352 448 l 1
 352 416 l 1
 320 416 l 1
 288 416 l 1
384 416 m 1
 384 448 l 1
 384 480 l 1
 384 512 l 1
 416 512 l 1
 448 512 l 1
 448 480 l 1
 448 448 l 1
 448 416 l 1
 416 416 l 1
 384 416 l 1
96 544 m 1
 96 576 l 1
 96 608 l 1
 96 640 l 1
 128 640 l 1
 160 640 l 1
 160 608 l 1
 160 576 l 1
 160 544 l 1
 128 544 l 1
 96 544 l 1
480 544 m 1
 480 576 l 1
 480 608 l 1
 480 640 l 1
 512 640 l 1
 544 640 l 1
 544 608 l 1
 544 576 l 1
 544 544 l 1
 512 544 l 1
 480 544 l 1
96 672 m 1
 96 704 l 1
 96 736 l 1
 96 768 l 1
 128 768 l 1
 160 768 l 1
 160 736 l 1
 160 704 l 1
 160 672 l 1
 128 672 l 1
 96 672 l 1
480 672 m 1
 480 704 l 1
 480 736 l 1
 480 768 l 1
 512 768 l 1
 544 768 l 1
 544 736 l 1
 544 704 l 1
 544 672 l 1
 512 672 l 1
 480 672 l 1
96 800 m 1
 96 832 l 1
 96 864 l 1
 96 896 l 1
 128 896 l 1
 160 896 l 1
 160 864 l 1
 160 832 l 1
 160 800 l 1
 128 800 l 1
 96 800 l 1
192 800 m 1
 192 832 l 1
 192 864 l 1
 192 896 l 1
 224 896 l 1
 256 896 l 1
 256 864 l 1
 256 832 l 1
 256 800 l 1
 224 800 l 1
 192 800 l 1
288 800 m 1
 288 832 l 1
 288 864 l 1
 288 896 l 1
 320 896 l 1
 352 896 l 1
 352 864 l 1
 352 832 l 1
 352 800 l 1
 320 800 l 1
 288 800 l 1
384 800 m 1
 384 832 l 1
 384 864 l 1
 384 896 l 1
 416 896 l 1
 448 896 l 1
 448 864 l 1
 448 832 l 1
 448 800 l 1
 416 800 l 1
 384 800 l 1
EndSplineSet
EndChar

StartChar: S
Encoding: 83 83 35
Width: 672
VWidth: 0
Flags: HW
LayerCount: 2
Back
Fore
SplineSet
192 32 m 1
 192 64 l 1
 192 96 l 1
 192 128 l 1
 224 128 l 1
 256 128 l 1
 256 96 l 1
 256 64 l 1
 256 32 l 1
 224 32 l 1
 192 32 l 1
288 32 m 1
 288 64 l 1
 288 96 l 1
 288 128 l 1
 320 128 l 1
 352 128 l 1
 352 96 l 1
 352 64 l 1
 352 32 l 1
 320 32 l 1
 288 32 l 1
384 32 m 1
 384 64 l 1
 384 96 l 1
 384 128 l 1
 416 128 l 1
 448 128 l 1
 448 96 l 1
 448 64 l 1
 448 32 l 1
 416 32 l 1
 384 32 l 1
96 160 m 1
 96 192 l 1
 96 224 l 1
 96 256 l 1
 128 256 l 1
 160 256 l 1
 160 224 l 1
 160 192 l 1
 160 160 l 1
 128 160 l 1
 96 160 l 1
480 160 m 1
 480 192 l 1
 480 224 l 1
 480 256 l 1
 512 256 l 1
 544 256 l 1
 544 224 l 1
 544 192 l 1
 544 160 l 1
 512 160 l 1
 480 160 l 1
480 288 m 1
 480 320 l 1
 480 352 l 1
 480 384 l 1
 512 384 l 1
 544 384 l 1
 544 352 l 1
 544 320 l 1
 544 288 l 1
 512 288 l 1
 480 288 l 1
192 416 m 1
 192 448 l 1
 192 480 l 1
 192 512 l 1
 224 512 l 1
 256 512 l 1
 256 480 l 1
 256 448 l 1
 256 416 l 1
 224 416 l 1
 192 416 l 1
288 416 m 1
 288 448 l 1
 288 480 l 1
 288 512 l 1
 320 512 l 1
 352 512 l 1
 352 480 l 1
 352 448 l 1
 352 416 l 1
 320 416 l 1
 288 416 l 1
384 416 m 1
 384 448 l 1
 384 480 l 1
 384 512 l 1
 416 512 l 1
 448 512 l 1
 448 480 l 1
 448 448 l 1
 448 416 l 1
 416 416 l 1
 384 416 l 1
96 544 m 1
 96 576 l 1
 96 608 l 1
 96 640 l 1
 128 640 l 1
 160 640 l 1
 160 608 l 1
 160 576 l 1
 160 544 l 1
 128 544 l 1
 96 544 l 1
96 672 m 1
 96 704 l 1
 96 736 l 1
 96 768 l 1
 128 768 l 1
 160 768 l 1
 160 736 l 1
 160 704 l 1
 160 672 l 1
 128 672 l 1
 96 672 l 1
480 672 m 1
 480 704 l 1
 480 736 l 1
 480 768 l 1
 512 768 l 1
 544 768 l 1
 544 736 l 1
 544 704 l 1
 544 672 l 1
 512 672 l 1
 480 672 l 1
192 800 m 1
 192 832 l 1
 192 864 l 1
 192 896 l 1
 224 896 l 1
 256 896 l 1
 256 864 l 1
 256 832 l 1
 256 800 l 1
 224 800 l 1
 192 800 l 1
288 800 m 1
 288 832 l 1
 288 864 l 1
 288 896 l 1
 320 896 l 1
 352 896 l 1
 352 864 l 1
 352 832 l 1
 352 800 l 1
 320 800 l 1
 288 800 l 1
384 800 m 1
 384 832 l 1
 384 864 l 1
 384 896 l 1
 416 896 l 1
 448 896 l 1
 448 864 l 1
 448 832 l 1
 448 800 l 1
 416 800 l 1
 384 800 l 1
EndSplineSet
EndChar

StartChar: T
Encoding: 84 84 36
Width: 672
VWidth: 0
Flags: HW
LayerCount: 2
Back
Fore
SplineSet
288 32 m 1
 288 64 l 1
 288 96 l 1
 288 128 l 1
 320 128 l 1
 352 128 l 1
 352 96 l 1
 352 64 l 1
 352 32 l 1
 320 32 l 1
 288 32 l 1
288 160 m 1
 288 192 l 1
 288 224 l 1
 288 256 l 1
 320 256 l 1
 352 256 l 1
 352 224 l 1
 352 192 l 1
 352 160 l 1
 320 160 l 1
 288 160 l 1
288 288 m 1
 288 320 l 1
 288 352 l 1
 288 384 l 1
 320 384 l 1
 352 384 l 1
 352 352 l 1
 352 320 l 1
 352 288 l 1
 320 288 l 1
 288 288 l 1
288 416 m 1
 288 448 l 1
 288 480 l 1
 288 512 l 1
 320 512 l 1
 352 512 l 1
 352 480 l 1
 352 448 l 1
 352 416 l 1
 320 416 l 1
 288 416 l 1
288 544 m 1
 288 576 l 1
 288 608 l 1
 288 640 l 1
 320 640 l 1
 352 640 l 1
 352 608 l 1
 352 576 l 1
 352 544 l 1
 320 544 l 1
 288 544 l 1
288 672 m 1
 288 704 l 1
 288 736 l 1
 288 768 l 1
 320 768 l 1
 352 768 l 1
 352 736 l 1
 352 704 l 1
 352 672 l 1
 320 672 l 1
 288 672 l 1
96 800 m 1
 96 832 l 1
 96 864 l 1
 96 896 l 1
 128 896 l 1
 160 896 l 1
 160 864 l 1
 160 832 l 1
 160 800 l 1
 128 800 l 1
 96 800 l 1
192 800 m 1
 192 832 l 1
 192 864 l 1
 192 896 l 1
 224 896 l 1
 256 896 l 1
 256 864 l 1
 256 832 l 1
 256 800 l 1
 224 800 l 1
 192 800 l 1
288 800 m 1
 288 832 l 1
 288 864 l 1
 288 896 l 1
 320 896 l 1
 352 896 l 1
 352 864 l 1
 352 832 l 1
 352 800 l 1
 320 800 l 1
 288 800 l 1
384 800 m 1
 384 832 l 1
 384 864 l 1
 384 896 l 1
 416 896 l 1
 448 896 l 1
 448 864 l 1
 448 832 l 1
 448 800 l 1
 416 800 l 1
 384 800 l 1
480 800 m 1
 480 832 l 1
 480 864 l 1
 480 896 l 1
 512 896 l 1
 544 896 l 1
 544 864 l 1
 544 832 l 1
 544 800 l 1
 512 800 l 1
 480 800 l 1
EndSplineSet
EndChar

StartChar: U
Encoding: 85 85 37
Width: 672
VWidth: 0
Flags: HW
LayerCount: 2
Back
Fore
SplineSet
192 32 m 1
 192 64 l 1
 192 96 l 1
 192 128 l 1
 224 128 l 1
 256 128 l 1
 256 96 l 1
 256 64 l 1
 256 32 l 1
 224 32 l 1
 192 32 l 1
288 32 m 1
 288 64 l 1
 288 96 l 1
 288 128 l 1
 320 128 l 1
 352 128 l 1
 352 96 l 1
 352 64 l 1
 352 32 l 1
 320 32 l 1
 288 32 l 1
384 32 m 1
 384 64 l 1
 384 96 l 1
 384 128 l 1
 416 128 l 1
 448 128 l 1
 448 96 l 1
 448 64 l 1
 448 32 l 1
 416 32 l 1
 384 32 l 1
96 160 m 1
 96 192 l 1
 96 224 l 1
 96 256 l 1
 128 256 l 1
 160 256 l 1
 160 224 l 1
 160 192 l 1
 160 160 l 1
 128 160 l 1
 96 160 l 1
480 160 m 1
 480 192 l 1
 480 224 l 1
 480 256 l 1
 512 256 l 1
 544 256 l 1
 544 224 l 1
 544 192 l 1
 544 160 l 1
 512 160 l 1
 480 160 l 1
96 288 m 1
 96 320 l 1
 96 352 l 1
 96 384 l 1
 128 384 l 1
 160 384 l 1
 160 352 l 1
 160 320 l 1
 160 288 l 1
 128 288 l 1
 96 288 l 1
480 288 m 1
 480 320 l 1
 480 352 l 1
 480 384 l 1
 512 384 l 1
 544 384 l 1
 544 352 l 1
 544 320 l 1
 544 288 l 1
 512 288 l 1
 480 288 l 1
96 416 m 1
 96 448 l 1
 96 480 l 1
 96 512 l 1
 128 512 l 1
 160 512 l 1
 160 480 l 1
 160 448 l 1
 160 416 l 1
 128 416 l 1
 96 416 l 1
480 416 m 1
 480 448 l 1
 480 480 l 1
 480 512 l 1
 512 512 l 1
 544 512 l 1
 544 480 l 1
 544 448 l 1
 544 416 l 1
 512 416 l 1
 480 416 l 1
96 544 m 1
 96 576 l 1
 96 608 l 1
 96 640 l 1
 128 640 l 1
 160 640 l 1
 160 608 l 1
 160 576 l 1
 160 544 l 1
 128 544 l 1
 96 544 l 1
480 544 m 1
 480 576 l 1
 480 608 l 1
 480 640 l 1
 512 640 l 1
 544 640 l 1
 544 608 l 1
 544 576 l 1
 544 544 l 1
 512 544 l 1
 480 544 l 1
96 672 m 1
 96 704 l 1
 96 736 l 1
 96 768 l 1
 128 768 l 1
 160 768 l 1
 160 736 l 1
 160 704 l 1
 160 672 l 1
 128 672 l 1
 96 672 l 1
480 672 m 1
 480 704 l 1
 480 736 l 1
 480 768 l 1
 512 768 l 1
 544 768 l 1
 544 736 l 1
 544 704 l 1
 544 672 l 1
 512 672 l 1
 480 672 l 1
96 800 m 1
 96 832 l 1
 96 864 l 1
 96 896 l 1
 128 896 l 1
 160 896 l 1
 160 864 l 1
 160 832 l 1
 160 800 l 1
 128 800 l 1
 96 800 l 1
480 800 m 1
 480 832 l 1
 480 864 l 1
 480 896 l 1
 512 896 l 1
 544 896 l 1
 544 864 l 1
 544 832 l 1
 544 800 l 1
 512 800 l 1
 480 800 l 1
EndSplineSet
EndChar

StartChar: V
Encoding: 86 86 38
Width: 672
VWidth: 0
Flags: HW
LayerCount: 2
Back
Fore
SplineSet
288 32 m 1
 288 64 l 1
 288 96 l 1
 288 128 l 1
 320 128 l 1
 352 128 l 1
 352 96 l 1
 352 64 l 1
 352 32 l 1
 320 32 l 1
 288 32 l 1
192 160 m 1
 192 192 l 1
 192 224 l 1
 192 256 l 1
 224 256 l 1
 256 256 l 1
 256 224 l 1
 256 192 l 1
 256 160 l 1
 224 160 l 1
 192 160 l 1
384 160 m 1
 384 192 l 1
 384 224 l 1
 384 256 l 1
 416 256 l 1
 448 256 l 1
 448 224 l 1
 448 192 l 1
 448 160 l 1
 416 160 l 1
 384 160 l 1
96 288 m 1
 96 320 l 1
 96 352 l 1
 96 384 l 1
 128 384 l 1
 160 384 l 1
 160 352 l 1
 160 320 l 1
 160 288 l 1
 128 288 l 1
 96 288 l 1
480 288 m 1
 480 320 l 1
 480 352 l 1
 480 384 l 1
 512 384 l 1
 544 384 l 1
 544 352 l 1
 544 320 l 1
 544 288 l 1
 512 288 l 1
 480 288 l 1
96 416 m 1
 96 448 l 1
 96 480 l 1
 96 512 l 1
 128 512 l 1
 160 512 l 1
 160 480 l 1
 160 448 l 1
 160 416 l 1
 128 416 l 1
 96 416 l 1
480 416 m 1
 480 448 l 1
 480 480 l 1
 480 512 l 1
 512 512 l 1
 544 512 l 1
 544 480 l 1
 544 448 l 1
 544 416 l 1
 512 416 l 1
 480 416 l 1
96 544 m 1
 96 576 l 1
 96 608 l 1
 96 640 l 1
 128 640 l 1
 160 640 l 1
 160 608 l 1
 160 576 l 1
 160 544 l 1
 128 544 l 1
 96 544 l 1
480 544 m 1
 480 576 l 1
 480 608 l 1
 480 640 l 1
 512 640 l 1
 544 640 l 1
 544 608 l 1
 544 576 l 1
 544 544 l 1
 512 544 l 1
 480 544 l 1
96 672 m 1
 96 704 l 1
 96 736 l 1
 96 768 l 1
 128 768 l 1
 160 768 l 1
 160 736 l 1
 160 704 l 1
 160 672 l 1
 128 672 l 1
 96 672 l 1
480 672 m 1
 480 704 l 1
 480 736 l 1
 480 768 l 1
 512 768 l 1
 544 768 l 1
 544 736 l 1
 544 704 l 1
 544 672 l 1
 512 672 l 1
 480 672 l 1
96 800 m 1
 96 832 l 1
 96 864 l 1
 96 896 l 1
 128 896 l 1
 160 896 l 1
 160 864 l 1
 160 832 l 1
 160 800 l 1
 128 800 l 1
 96 800 l 1
480 800 m 1
 480 832 l 1
 480 864 l 1
 480 896 l 1
 512 896 l 1
 544 896 l 1
 544 864 l 1
 544 832 l 1
 544 800 l 1
 512 800 l 1
 480 800 l 1
EndSplineSet
EndChar

StartChar: W
Encoding: 87 87 39
Width: 672
VWidth: 0
Flags: HW
LayerCount: 2
Back
Fore
SplineSet
96 32 m 1
 96 64 l 1
 96 96 l 1
 96 128 l 1
 128 128 l 1
 160 128 l 1
 160 96 l 1
 160 64 l 1
 160 32 l 1
 128 32 l 1
 96 32 l 1
480 32 m 1
 480 64 l 1
 480 96 l 1
 480 128 l 1
 512 128 l 1
 544 128 l 1
 544 96 l 1
 544 64 l 1
 544 32 l 1
 512 32 l 1
 480 32 l 1
96 160 m 1
 96 192 l 1
 96 224 l 1
 96 256 l 1
 128 256 l 1
 160 256 l 1
 160 224 l 1
 160 192 l 1
 160 160 l 1
 128 160 l 1
 96 160 l 1
192 160 m 1
 192 192 l 1
 192 224 l 1
 192 256 l 1
 224 256 l 1
 256 256 l 1
 256 224 l 1
 256 192 l 1
 256 160 l 1
 224 160 l 1
 192 160 l 1
384 160 m 1
 384 192 l 1
 384 224 l 1
 384 256 l 1
 416 256 l 1
 448 256 l 1
 448 224 l 1
 448 192 l 1
 448 160 l 1
 416 160 l 1
 384 160 l 1
480 160 m 1
 480 192 l 1
 480 224 l 1
 480 256 l 1
 512 256 l 1
 544 256 l 1
 544 224 l 1
 544 192 l 1
 544 160 l 1
 512 160 l 1
 480 160 l 1
96 288 m 1
 96 320 l 1
 96 352 l 1
 96 384 l 1
 128 384 l 1
 160 384 l 1
 160 352 l 1
 160 320 l 1
 160 288 l 1
 128 288 l 1
 96 288 l 1
288 288 m 1
 288 320 l 1
 288 352 l 1
 288 384 l 1
 320 384 l 1
 352 384 l 1
 352 352 l 1
 352 320 l 1
 352 288 l 1
 320 288 l 1
 288 288 l 1
480 288 m 1
 480 320 l 1
 480 352 l 1
 480 384 l 1
 512 384 l 1
 544 384 l 1
 544 352 l 1
 544 320 l 1
 544 288 l 1
 512 288 l 1
 480 288 l 1
96 416 m 1
 96 448 l 1
 96 480 l 1
 96 512 l 1
 128 512 l 1
 160 512 l 1
 160 480 l 1
 160 448 l 1
 160 416 l 1
 128 416 l 1
 96 416 l 1
288 416 m 1
 288 448 l 1
 288 480 l 1
 288 512 l 1
 320 512 l 1
 352 512 l 1
 352 480 l 1
 352 448 l 1
 352 416 l 1
 320 416 l 1
 288 416 l 1
480 416 m 1
 480 448 l 1
 480 480 l 1
 480 512 l 1
 512 512 l 1
 544 512 l 1
 544 480 l 1
 544 448 l 1
 544 416 l 1
 512 416 l 1
 480 416 l 1
96 544 m 1
 96 576 l 1
 96 608 l 1
 96 640 l 1
 128 640 l 1
 160 640 l 1
 160 608 l 1
 160 576 l 1
 160 544 l 1
 128 544 l 1
 96 544 l 1
480 544 m 1
 480 576 l 1
 480 608 l 1
 480 640 l 1
 512 640 l 1
 544 640 l 1
 544 608 l 1
 544 576 l 1
 544 544 l 1
 512 544 l 1
 480 544 l 1
96 672 m 1
 96 704 l 1
 96 736 l 1
 96 768 l 1
 128 768 l 1
 160 768 l 1
 160 736 l 1
 160 704 l 1
 160 672 l 1
 128 672 l 1
 96 672 l 1
480 672 m 1
 480 704 l 1
 480 736 l 1
 480 768 l 1
 512 768 l 1
 544 768 l 1
 544 736 l 1
 544 704 l 1
 544 672 l 1
 512 672 l 1
 480 672 l 1
96 800 m 1
 96 832 l 1
 96 864 l 1
 96 896 l 1
 128 896 l 1
 160 896 l 1
 160 864 l 1
 160 832 l 1
 160 800 l 1
 128 800 l 1
 96 800 l 1
480 800 m 1
 480 832 l 1
 480 864 l 1
 480 896 l 1
 512 896 l 1
 544 896 l 1
 544 864 l 1
 544 832 l 1
 544 800 l 1
 512 800 l 1
 480 800 l 1
EndSplineSet
EndChar

StartChar: X
Encoding: 88 88 40
Width: 672
VWidth: 0
Flags: HW
LayerCount: 2
Back
Fore
SplineSet
96 32 m 1
 96 64 l 1
 96 96 l 1
 96 128 l 1
 128 128 l 1
 160 128 l 1
 160 96 l 1
 160 64 l 1
 160 32 l 1
 128 32 l 1
 96 32 l 1
480 32 m 1
 480 64 l 1
 480 96 l 1
 480 128 l 1
 512 128 l 1
 544 128 l 1
 544 96 l 1
 544 64 l 1
 544 32 l 1
 512 32 l 1
 480 32 l 1
96 160 m 1
 96 192 l 1
 96 224 l 1
 96 256 l 1
 128 256 l 1
 160 256 l 1
 160 224 l 1
 160 192 l 1
 160 160 l 1
 128 160 l 1
 96 160 l 1
480 160 m 1
 480 192 l 1
 480 224 l 1
 480 256 l 1
 512 256 l 1
 544 256 l 1
 544 224 l 1
 544 192 l 1
 544 160 l 1
 512 160 l 1
 480 160 l 1
192 288 m 1
 192 320 l 1
 192 352 l 1
 192 384 l 1
 224 384 l 1
 256 384 l 1
 256 352 l 1
 256 320 l 1
 256 288 l 1
 224 288 l 1
 192 288 l 1
384 288 m 1
 384 320 l 1
 384 352 l 1
 384 384 l 1
 416 384 l 1
 448 384 l 1
 448 352 l 1
 448 320 l 1
 448 288 l 1
 416 288 l 1
 384 288 l 1
288 416 m 1
 288 448 l 1
 288 480 l 1
 288 512 l 1
 320 512 l 1
 352 512 l 1
 352 480 l 1
 352 448 l 1
 352 416 l 1
 320 416 l 1
 288 416 l 1
192 544 m 1
 192 576 l 1
 192 608 l 1
 192 640 l 1
 224 640 l 1
 256 640 l 1
 256 608 l 1
 256 576 l 1
 256 544 l 1
 224 544 l 1
 192 544 l 1
384 544 m 1
 384 576 l 1
 384 608 l 1
 384 640 l 1
 416 640 l 1
 448 640 l 1
 448 608 l 1
 448 576 l 1
 448 544 l 1
 416 544 l 1
 384 544 l 1
96 672 m 1
 96 704 l 1
 96 736 l 1
 96 768 l 1
 128 768 l 1
 160 768 l 1
 160 736 l 1
 160 704 l 1
 160 672 l 1
 128 672 l 1
 96 672 l 1
480 672 m 1
 480 704 l 1
 480 736 l 1
 480 768 l 1
 512 768 l 1
 544 768 l 1
 544 736 l 1
 544 704 l 1
 544 672 l 1
 512 672 l 1
 480 672 l 1
96 800 m 1
 96 832 l 1
 96 864 l 1
 96 896 l 1
 128 896 l 1
 160 896 l 1
 160 864 l 1
 160 832 l 1
 160 800 l 1
 128 800 l 1
 96 800 l 1
480 800 m 1
 480 832 l 1
 480 864 l 1
 480 896 l 1
 512 896 l 1
 544 896 l 1
 544 864 l 1
 544 832 l 1
 544 800 l 1
 512 800 l 1
 480 800 l 1
EndSplineSet
EndChar

StartChar: Y
Encoding: 89 89 41
Width: 672
VWidth: 0
Flags: HW
LayerCount: 2
Back
Fore
SplineSet
288 32 m 1
 288 64 l 1
 288 96 l 1
 288 128 l 1
 320 128 l 1
 352 128 l 1
 352 96 l 1
 352 64 l 1
 352 32 l 1
 320 32 l 1
 288 32 l 1
288 160 m 1
 288 192 l 1
 288 224 l 1
 288 256 l 1
 320 256 l 1
 352 256 l 1
 352 224 l 1
 352 192 l 1
 352 160 l 1
 320 160 l 1
 288 160 l 1
288 288 m 1
 288 320 l 1
 288 352 l 1
 288 384 l 1
 320 384 l 1
 352 384 l 1
 352 352 l 1
 352 320 l 1
 352 288 l 1
 320 288 l 1
 288 288 l 1
288 416 m 1
 288 448 l 1
 288 480 l 1
 288 512 l 1
 320 512 l 1
 352 512 l 1
 352 480 l 1
 352 448 l 1
 352 416 l 1
 320 416 l 1
 288 416 l 1
192 544 m 1
 192 576 l 1
 192 608 l 1
 192 640 l 1
 224 640 l 1
 256 640 l 1
 256 608 l 1
 256 576 l 1
 256 544 l 1
 224 544 l 1
 192 544 l 1
384 544 m 1
 384 576 l 1
 384 608 l 1
 384 640 l 1
 416 640 l 1
 448 640 l 1
 448 608 l 1
 448 576 l 1
 448 544 l 1
 416 544 l 1
 384 544 l 1
96 672 m 1
 96 704 l 1
 96 736 l 1
 96 768 l 1
 128 768 l 1
 160 768 l 1
 160 736 l 1
 160 704 l 1
 160 672 l 1
 128 672 l 1
 96 672 l 1
480 672 m 1
 480 704 l 1
 480 736 l 1
 480 768 l 1
 512 768 l 1
 544 768 l 1
 544 736 l 1
 544 704 l 1
 544 672 l 1
 512 672 l 1
 480 672 l 1
96 800 m 1
 96 832 l 1
 96 864 l 1
 96 896 l 1
 128 896 l 1
 160 896 l 1
 160 864 l 1
 160 832 l 1
 160 800 l 1
 128 800 l 1
 96 800 l 1
480 800 m 1
 480 832 l 1
 480 864 l 1
 480 896 l 1
 512 896 l 1
 544 896 l 1
 544 864 l 1
 544 832 l 1
 544 800 l 1
 512 800 l 1
 480 800 l 1
EndSplineSet
EndChar

StartChar: Z
Encoding: 90 90 42
Width: 672
VWidth: 0
Flags: HW
LayerCount: 2
Back
Fore
SplineSet
96 32 m 1
 96 64 l 1
 96 96 l 1
 96 128 l 1
 128 128 l 1
 160 128 l 1
 160 96 l 1
 160 64 l 1
 160 32 l 1
 128 32 l 1
 96 32 l 1
192 32 m 1
 192 64 l 1
 192 96 l 1
 192 128 l 1
 224 128 l 1
 256 128 l 1
 256 96 l 1
 256 64 l 1
 256 32 l 1
 224 32 l 1
 192 32 l 1
288 32 m 1
 288 64 l 1
 288 96 l 1
 288 128 l 1
 320 128 l 1
 352 128 l 1
 352 96 l 1
 352 64 l 1
 352 32 l 1
 320 32 l 1
 288 32 l 1
384 32 m 1
 384 64 l 1
 384 96 l 1
 384 128 l 1
 416 128 l 1
 448 128 l 1
 448 96 l 1
 448 64 l 1
 448 32 l 1
 416 32 l 1
 384 32 l 1
480 32 m 1
 480 64 l 1
 480 96 l 1
 480 128 l 1
 512 128 l 1
 544 128 l 1
 544 96 l 1
 544 64 l 1
 544 32 l 1
 512 32 l 1
 480 32 l 1
96 160 m 1
 96 192 l 1
 96 224 l 1
 96 256 l 1
 128 256 l 1
 160 256 l 1
 160 224 l 1
 160 192 l 1
 160 160 l 1
 128 160 l 1
 96 160 l 1
192 288 m 1
 192 320 l 1
 192 352 l 1
 192 384 l 1
 224 384 l 1
 256 384 l 1
 256 352 l 1
 256 320 l 1
 256 288 l 1
 224 288 l 1
 192 288 l 1
288 416 m 1
 288 448 l 1
 288 480 l 1
 288 512 l 1
 320 512 l 1
 352 512 l 1
 352 480 l 1
 352 448 l 1
 352 416 l 1
 320 416 l 1
 288 416 l 1
384 544 m 1
 384 576 l 1
 384 608 l 1
 384 640 l 1
 416 640 l 1
 448 640 l 1
 448 608 l 1
 448 576 l 1
 448 544 l 1
 416 544 l 1
 384 544 l 1
480 672 m 1
 480 704 l 1
 480 736 l 1
 480 768 l 1
 512 768 l 1
 544 768 l 1
 544 736 l 1
 544 704 l 1
 544 672 l 1
 512 672 l 1
 480 672 l 1
96 800 m 1
 96 832 l 1
 96 864 l 1
 96 896 l 1
 128 896 l 1
 160 896 l 1
 160 864 l 1
 160 832 l 1
 160 800 l 1
 128 800 l 1
 96 800 l 1
192 800 m 1
 192 832 l 1
 192 864 l 1
 192 896 l 1
 224 896 l 1
 256 896 l 1
 256 864 l 1
 256 832 l 1
 256 800 l 1
 224 800 l 1
 192 800 l 1
288 800 m 1
 288 832 l 1
 288 864 l 1
 288 896 l 1
 320 896 l 1
 352 896 l 1
 352 864 l 1
 352 832 l 1
 352 800 l 1
 320 800 l 1
 288 800 l 1
384 800 m 1
 384 832 l 1
 384 864 l 1
 384 896 l 1
 416 896 l 1
 448 896 l 1
 448 864 l 1
 448 832 l 1
 448 800 l 1
 416 800 l 1
 384 800 l 1
480 800 m 1
 480 832 l 1
 480 864 l 1
 480 896 l 1
 512 896 l 1
 544 896 l 1
 544 864 l 1
 544 832 l 1
 544 800 l 1
 512 800 l 1
 480 800 l 1
EndSplineSet
EndChar
